<svg width="946" height="304" viewBox="0 0 946 304" fill="none" xmlns="http://www.w3.org/2000/svg">
<path d="M3.46594 92V71.6364H15.6762V73.8239H5.93185V80.7045H14.7614V82.892H5.93185V92H3.46594Z" fill="white"/>
<path d="M19.5814 92V76.7273H21.9279V92H19.5814ZM20.7745 74.1818C20.3171 74.1818 19.9227 74.026 19.5913 73.7145C19.2665 73.4029 19.1041 73.0284 19.1041 72.5909C19.1041 72.1534 19.2665 71.7789 19.5913 71.4673C19.9227 71.1558 20.3171 71 20.7745 71C21.2319 71 21.623 71.1558 21.9478 71.4673C22.2793 71.7789 22.445 72.1534 22.445 72.5909C22.445 73.0284 22.2793 73.4029 21.9478 73.7145C21.623 74.026 21.2319 74.1818 20.7745 74.1818Z" fill="white"/>
<path d="M32.3907 98.0454C31.2571 98.0454 30.2827 97.8996 29.4674 97.6079C28.652 97.3229 27.9726 96.9451 27.429 96.4744C26.8921 96.0104 26.4645 95.5132 26.1463 94.9829L28.0157 93.6704C28.2278 93.9488 28.4962 94.267 28.8211 94.625C29.1459 94.9896 29.59 95.3044 30.1534 95.5696C30.7235 95.8414 31.4693 95.9773 32.3907 95.9773C33.6236 95.9773 34.6411 95.679 35.4432 95.0824C36.2453 94.4858 36.6463 93.5511 36.6463 92.2784V89.1761H36.4475C36.2751 89.4545 36.0299 89.7992 35.7117 90.2102C35.4001 90.6146 34.9494 90.9758 34.3594 91.294C33.7761 91.6056 32.9872 91.7614 31.9929 91.7614C30.76 91.7614 29.653 91.4697 28.6719 90.8864C27.6975 90.303 26.9252 89.4545 26.3551 88.3409C25.7917 87.2273 25.51 85.875 25.51 84.2841C25.51 82.7197 25.7851 81.3575 26.3353 80.1974C26.8854 79.0308 27.6511 78.1293 28.6321 77.4929C29.6132 76.8499 30.7467 76.5284 32.0327 76.5284C33.027 76.5284 33.8158 76.6941 34.3992 77.0256C34.9891 77.3504 35.4399 77.7216 35.7515 78.1392C36.0696 78.5502 36.3149 78.8882 36.4873 79.1534H36.7259V76.7273H38.9929V92.4375C38.9929 93.75 38.6946 94.8172 38.098 95.6392C37.5081 96.4678 36.7126 97.0743 35.7117 97.4588C34.7174 97.8499 33.6104 98.0454 32.3907 98.0454ZM32.3111 89.6534C33.2524 89.6534 34.0479 89.438 34.6975 89.0071C35.3471 88.5762 35.8409 87.9564 36.179 87.1477C36.5171 86.339 36.6861 85.3712 36.6861 84.2443C36.6861 83.1439 36.5204 82.1728 36.189 81.331C35.8575 80.4891 35.367 79.8295 34.7174 79.3523C34.0677 78.875 33.2657 78.6364 32.3111 78.6364C31.3168 78.6364 30.4882 78.8882 29.8253 79.392C29.1691 79.8958 28.6752 80.572 28.3438 81.4204C28.019 82.2689 27.8566 83.2102 27.8566 84.2443C27.8566 85.3049 28.0223 86.2429 28.3537 87.0582C28.6918 87.8669 29.189 88.5033 29.8452 88.9673C30.5081 89.4247 31.3301 89.6534 32.3111 89.6534Z" fill="white"/>
<path d="M43.2884 92V76.7273H45.5554V79.1136H45.7543C46.0725 78.2983 46.5862 77.6652 47.2955 77.2145C48.0048 76.7571 48.8566 76.5284 49.8509 76.5284C50.8585 76.5284 51.697 76.7571 52.3665 77.2145C53.0426 77.6652 53.5696 78.2983 53.9475 79.1136H54.1066C54.4977 78.3248 55.0843 77.6984 55.8665 77.2344C56.6487 76.7637 57.5867 76.5284 58.6804 76.5284C60.046 76.5284 61.1629 76.956 62.0313 77.8111C62.8997 78.6596 63.3338 79.982 63.3338 81.7784V92H60.9872V81.7784C60.9872 80.6515 60.679 79.8461 60.0625 79.3622C59.4461 78.8783 58.7202 78.6364 57.885 78.6364C56.8111 78.6364 55.9792 78.9612 55.3892 79.6108C54.7993 80.2538 54.5043 81.0691 54.5043 82.0568V92H52.1179V81.5398C52.1179 80.6714 51.8362 79.9721 51.2728 79.4417C50.7093 78.9048 49.9835 78.6364 49.0952 78.6364C48.4854 78.6364 47.9153 78.7988 47.385 79.1236C46.8613 79.4484 46.4371 79.8991 46.1122 80.4758C45.7941 81.0459 45.635 81.7055 45.635 82.4545V92H43.2884Z" fill="white"/>
<path d="M72.1186 92.3579C71.1508 92.3579 70.2725 92.1756 69.4837 91.8111C68.6949 91.4399 68.0685 90.9062 67.6044 90.2102C67.1404 89.5076 66.9084 88.6591 66.9084 87.6648C66.9084 86.7898 67.0808 86.0805 67.4255 85.5369C67.7702 84.9867 68.2309 84.5559 68.8076 84.2443C69.3843 83.9328 70.0206 83.7007 70.7167 83.5483C71.4193 83.3892 72.1253 83.2632 72.8345 83.1704C73.7626 83.0511 74.5149 82.9616 75.0917 82.902C75.675 82.8357 76.0992 82.7263 76.3644 82.5739C76.6362 82.4214 76.772 82.1562 76.772 81.7784V81.6989C76.772 80.7178 76.5036 79.9555 75.9667 79.4119C75.4363 78.8684 74.631 78.5966 73.5505 78.5966C72.4302 78.5966 71.5519 78.8418 70.9155 79.3324C70.2792 79.8229 69.8317 80.3466 69.5732 80.9034L67.3459 80.1079C67.7436 79.1799 68.2739 78.4574 68.9368 77.9403C69.6063 77.4167 70.3355 77.0521 71.1243 76.8466C71.9198 76.6345 72.702 76.5284 73.4709 76.5284C73.9614 76.5284 74.5249 76.5881 75.1613 76.7074C75.8042 76.8201 76.424 77.0554 77.0206 77.4133C77.6238 77.7713 78.1243 78.3115 78.522 79.0341C78.9198 79.7566 79.1186 80.7244 79.1186 81.9375V92H76.772V89.9318H76.6527C76.4936 90.2632 76.2285 90.6179 75.8573 90.9957C75.4861 91.3736 74.9922 91.6951 74.3757 91.9602C73.7593 92.2254 73.0069 92.3579 72.1186 92.3579ZM72.4766 90.25C73.4046 90.25 74.1868 90.0677 74.8232 89.7031C75.4662 89.3385 75.9501 88.8679 76.2749 88.2912C76.6063 87.7145 76.772 87.1079 76.772 86.4716V84.3239C76.6726 84.4432 76.4539 84.5525 76.1158 84.652C75.7844 84.7448 75.3999 84.8276 74.9624 84.9006C74.5315 84.9668 74.1106 85.0265 73.6996 85.0795C73.2953 85.1259 72.9671 85.1657 72.7152 85.1989C72.1054 85.2784 71.5353 85.4077 71.005 85.5866C70.4813 85.759 70.0571 86.0208 69.7323 86.3721C69.4141 86.7168 69.255 87.1875 69.255 87.7841C69.255 88.5994 69.5566 89.2159 70.1598 89.6335C70.7697 90.0445 71.5419 90.25 72.4766 90.25Z" fill="white"/>
<path d="M13.8296 0.636353H16.2955V14.1193C16.2955 15.5114 15.9674 16.7543 15.3111 17.848C14.6615 18.9351 13.7434 19.7935 12.5569 20.4233C11.3703 21.0464 9.97825 21.3579 8.38072 21.3579C6.78318 21.3579 5.39113 21.0464 4.20458 20.4233C3.01803 19.7935 2.09662 18.9351 1.44037 17.848C0.790753 16.7543 0.465942 15.5114 0.465942 14.1193V0.636353H2.93185V13.9204C2.93185 14.9148 3.1506 15.7997 3.5881 16.5753C4.0256 17.3442 4.64871 17.9507 5.45742 18.3949C6.27276 18.8324 7.24719 19.0511 8.38072 19.0511C9.51424 19.0511 10.4887 18.8324 11.304 18.3949C12.1194 17.9507 12.7425 17.3442 13.1733 16.5753C13.6108 15.7997 13.8296 14.9148 13.8296 13.9204V0.636353Z" fill="white"/>
<path d="M22.413 0.636353L27.663 9.10794H27.8221L33.0721 0.636353H35.9755L29.5721 10.8182L35.9755 21H33.0721L27.8221 12.6875H27.663L22.413 21H19.5096L26.0721 10.8182L19.5096 0.636353H22.413Z" fill="white"/>
<path d="M45.7024 9.72442V11.9119H36.7934V9.72442H45.7024Z" fill="white"/>
<path d="M60.0529 17.5398L67.4109 5.72726H70.1154V21H67.7689V9.18749L60.4507 21H57.7064V5.72726H60.0529V17.5398Z" fill="white"/>
<path d="M84.635 12.2898V14.4773H76.2032V12.2898H84.635ZM76.76 5.72726V21H74.4134V5.72726H76.76ZM86.4248 5.72726V21H84.0782V5.72726H86.4248Z" fill="white"/>
<path d="M96.9148 21.3182C95.483 21.3182 94.25 20.9801 93.2159 20.304C92.1819 19.6278 91.3864 18.6965 90.8296 17.5099C90.2728 16.3234 89.9944 14.9678 89.9944 13.4432C89.9944 11.892 90.2794 10.5232 90.8495 9.33664C91.4262 8.14346 92.2283 7.21211 93.2557 6.5426C94.2898 5.86647 95.4962 5.5284 96.875 5.5284C97.9489 5.5284 98.9167 5.72726 99.7784 6.12499C100.64 6.52272 101.346 7.07953 101.896 7.79544C102.447 8.51135 102.788 9.34658 102.92 10.3011H100.574C100.395 9.6051 99.9972 8.98863 99.3807 8.45169C98.7709 7.90813 97.9489 7.63635 96.9148 7.63635C96 7.63635 95.1979 7.87499 94.5086 8.35226C93.8258 8.82291 93.2922 9.4891 92.9077 10.3508C92.5299 11.206 92.3409 12.2102 92.3409 13.3636C92.3409 14.5435 92.5265 15.571 92.8978 16.446C93.2756 17.321 93.8059 18.0005 94.4887 18.4844C95.1781 18.9683 95.9868 19.2102 96.9148 19.2102C97.5247 19.2102 98.0782 19.1042 98.5753 18.892C99.0725 18.6799 99.4934 18.375 99.8381 17.9773C100.183 17.5795 100.428 17.1023 100.574 16.5454H102.92C102.788 17.447 102.46 18.259 101.936 18.9815C101.419 19.6974 100.733 20.2675 99.8779 20.6918C99.0294 21.1094 98.0417 21.3182 96.9148 21.3182Z" fill="white"/>
<path d="M105.148 7.91476V5.72726H117.557V7.91476H112.545V21H110.199V7.91476H105.148Z" fill="white"/>
<path d="M122.491 26.7273C122.093 26.7273 121.739 26.6941 121.427 26.6278C121.116 26.5682 120.9 26.5085 120.781 26.4489L121.378 24.3807C121.948 24.5265 122.451 24.5795 122.889 24.5398C123.326 24.5 123.714 24.3044 124.052 23.9531C124.397 23.6084 124.712 23.0483 124.997 22.2727L125.434 21.0795L119.787 5.72726H122.332L126.548 17.8977H126.707L130.923 5.72726H133.468L126.985 23.2273C126.694 24.0161 126.333 24.669 125.902 25.1861C125.471 25.7097 124.97 26.0975 124.4 26.3494C123.837 26.6013 123.2 26.7273 122.491 26.7273Z" fill="white"/>
<path d="M136.566 26.7273V5.72726H138.833V8.1534H139.111C139.284 7.88825 139.522 7.55018 139.827 7.13919C140.139 6.72158 140.583 6.35037 141.159 6.02556C141.743 5.69412 142.532 5.5284 143.526 5.5284C144.812 5.5284 145.945 5.84989 146.927 6.49289C147.908 7.13588 148.673 8.04734 149.223 9.22726C149.774 10.4072 150.049 11.7992 150.049 13.4034C150.049 15.0208 149.774 16.4228 149.223 17.6094C148.673 18.7893 147.911 19.7041 146.936 20.3537C145.962 20.9967 144.838 21.3182 143.566 21.3182C142.585 21.3182 141.799 21.1558 141.209 20.831C140.619 20.4995 140.165 20.125 139.847 19.7074C139.529 19.2831 139.284 18.9318 139.111 18.6534H138.912V26.7273H136.566ZM138.873 13.3636C138.873 14.517 139.042 15.5346 139.38 16.4162C139.718 17.2912 140.212 17.9773 140.861 18.4744C141.511 18.965 142.306 19.2102 143.248 19.2102C144.229 19.2102 145.047 18.9517 145.704 18.4346C146.366 17.911 146.864 17.2083 147.195 16.3267C147.533 15.4384 147.702 14.4507 147.702 13.3636C147.702 12.2898 147.536 11.322 147.205 10.4602C146.88 9.59185 146.386 8.90577 145.723 8.40198C145.067 7.89156 144.242 7.63635 143.248 7.63635C142.293 7.63635 141.491 7.8783 140.841 8.36221C140.192 8.83948 139.701 9.50899 139.37 10.3707C139.038 11.2258 138.873 12.2235 138.873 13.3636Z" fill="white"/>
<path d="M161.98 17.8182L167.31 5.72726H169.537L162.935 21H161.026L154.543 5.72726H156.73L161.98 17.8182ZM155.975 5.72726V21H153.628V5.72726H155.975ZM167.986 21V5.72726H170.333V21H167.986Z" fill="white"/>
<path d="M181.032 21.3182C179.56 21.3182 178.291 20.9934 177.223 20.3437C176.163 19.6875 175.344 18.7727 174.767 17.5994C174.197 16.4195 173.912 15.0473 173.912 13.4829C173.912 11.9186 174.197 10.5398 174.767 9.34658C175.344 8.14677 176.146 7.21211 177.174 6.5426C178.208 5.86647 179.414 5.5284 180.793 5.5284C181.588 5.5284 182.374 5.66097 183.15 5.92612C183.925 6.19128 184.631 6.62215 185.267 7.21874C185.904 7.8087 186.411 8.5909 186.789 9.56533C187.167 10.5398 187.355 11.7396 187.355 13.1648V14.1591H175.583V12.1307H184.969C184.969 11.2689 184.797 10.5 184.452 9.82385C184.114 9.14772 183.63 8.6141 183 8.223C182.377 7.8319 181.641 7.63635 180.793 7.63635C179.858 7.63635 179.05 7.86836 178.367 8.33238C177.691 8.78976 177.17 9.38635 176.806 10.1221C176.441 10.8579 176.259 11.6468 176.259 12.4886V13.8409C176.259 14.9943 176.458 15.9721 176.855 16.7741C177.26 17.5696 177.82 18.1761 178.536 18.5937C179.252 19.0047 180.084 19.2102 181.032 19.2102C181.648 19.2102 182.205 19.124 182.702 18.9517C183.206 18.7727 183.64 18.5076 184.005 18.1562C184.369 17.7983 184.651 17.3542 184.85 16.8239L187.117 17.4602C186.878 18.2292 186.477 18.9053 185.914 19.4886C185.35 20.0653 184.654 20.5161 183.826 20.8409C182.997 21.1591 182.066 21.3182 181.032 21.3182Z" fill="white"/>
<path d="M201.147 12.2898V14.4773H192.715V12.2898H201.147ZM193.272 5.72726V21H190.925V5.72726H193.272ZM202.936 5.72726V21H200.59V5.72726H202.936Z" fill="white"/>
<path d="M205.144 7.91476V5.72726H217.553V7.91476H212.542V21H210.195V7.91476H205.144Z" fill="white"/>
<path d="M223.004 11.2557H227.379C229.169 11.2557 230.538 11.7097 231.486 12.6179C232.434 13.526 232.908 14.6761 232.908 16.0682C232.908 16.9829 232.696 17.8149 232.271 18.5639C231.847 19.3063 231.224 19.8996 230.402 20.3437C229.58 20.7812 228.572 21 227.379 21H220.976V5.72726H223.322V18.8125H227.379C228.307 18.8125 229.07 18.5672 229.666 18.0767C230.263 17.5862 230.561 16.9564 230.561 16.1875C230.561 15.3788 230.263 14.7192 229.666 14.2088C229.07 13.6984 228.307 13.4432 227.379 13.4432H223.004V11.2557ZM235.334 21V5.72726H237.68V21H235.334Z" fill="white"/>
<path d="M5.30117 162H2.71594L10.1932 141.636H12.7387L20.2159 162H17.6307L11.5455 144.858H11.3864L5.30117 162ZM6.25571 154.045H16.6762V156.233H6.25571V154.045Z" fill="white"/>
<path d="M28.8367 162.318C27.564 162.318 26.4404 161.997 25.4659 161.354C24.4915 160.704 23.7292 159.789 23.179 158.609C22.6288 157.423 22.3537 156.021 22.3537 154.403C22.3537 152.799 22.6288 151.407 23.179 150.227C23.7292 149.047 24.4948 148.136 25.4759 147.493C26.4569 146.85 27.5905 146.528 28.8765 146.528C29.8708 146.528 30.6563 146.694 31.233 147.026C31.8163 147.35 32.2605 147.722 32.5654 148.139C32.8769 148.55 33.1189 148.888 33.2912 149.153H33.4901V141.636H35.8367V162H33.5696V159.653H33.2912C33.1189 159.932 32.8736 160.283 32.5554 160.707C32.2372 161.125 31.7832 161.5 31.1932 161.831C30.6033 162.156 29.8177 162.318 28.8367 162.318ZM29.1549 160.21C30.0962 160.21 30.8916 159.965 31.5412 159.474C32.1908 158.977 32.6847 158.291 33.0228 157.416C33.3608 156.535 33.5299 155.517 33.5299 154.364C33.5299 153.223 33.3641 152.226 33.0327 151.371C32.7013 150.509 32.2107 149.839 31.5611 149.362C30.9115 148.878 30.1094 148.636 29.1549 148.636C28.1605 148.636 27.3319 148.892 26.6691 149.402C26.0128 149.906 25.519 150.592 25.1875 151.46C24.8627 152.322 24.7003 153.29 24.7003 154.364C24.7003 155.451 24.866 156.438 25.1975 157.327C25.5355 158.208 26.0327 158.911 26.689 159.435C27.3518 159.952 28.1738 160.21 29.1549 160.21Z" fill="white"/>
<path d="M46.6648 162.318C45.286 162.318 44.0763 161.99 43.0355 161.334C42.0015 160.678 41.1927 159.759 40.6094 158.58C40.0327 157.4 39.7444 156.021 39.7444 154.443C39.7444 152.852 40.0327 151.464 40.6094 150.277C41.1927 149.09 42.0015 148.169 43.0355 147.513C44.0763 146.857 45.286 146.528 46.6648 146.528C48.0436 146.528 49.25 146.857 50.2841 147.513C51.3248 148.169 52.1336 149.09 52.7103 150.277C53.2936 151.464 53.5853 152.852 53.5853 154.443C53.5853 156.021 53.2936 157.4 52.7103 158.58C52.1336 159.759 51.3248 160.678 50.2841 161.334C49.25 161.99 48.0436 162.318 46.6648 162.318ZM46.6648 160.21C47.7122 160.21 48.5739 159.942 49.25 159.405C49.9262 158.868 50.4266 158.162 50.7515 157.287C51.0763 156.412 51.2387 155.464 51.2387 154.443C51.2387 153.422 51.0763 152.471 50.7515 151.589C50.4266 150.708 49.9262 149.995 49.25 149.452C48.5739 148.908 47.7122 148.636 46.6648 148.636C45.6175 148.636 44.7557 148.908 44.0796 149.452C43.4034 149.995 42.903 150.708 42.5782 151.589C42.2533 152.471 42.0909 153.422 42.0909 154.443C42.0909 155.464 42.2533 156.412 42.5782 157.287C42.903 158.162 43.4034 158.868 44.0796 159.405C44.7557 159.942 45.6175 160.21 46.6648 160.21Z" fill="white"/>
<path d="M57.4855 162V141.636H59.8321V149.153H60.0309C60.2033 148.888 60.4419 148.55 60.7468 148.139C61.0584 147.722 61.5025 147.35 62.0792 147.026C62.6626 146.694 63.4514 146.528 64.4457 146.528C65.7317 146.528 66.8652 146.85 67.8463 147.493C68.8273 148.136 69.593 149.047 70.1431 150.227C70.6933 151.407 70.9684 152.799 70.9684 154.403C70.9684 156.021 70.6933 157.423 70.1431 158.609C69.593 159.789 68.8306 160.704 67.8562 161.354C66.8818 161.997 65.7582 162.318 64.4855 162.318C63.5044 162.318 62.7189 162.156 62.1289 161.831C61.539 161.5 61.0849 161.125 60.7667 160.707C60.4485 160.283 60.2033 159.932 60.0309 159.653H59.7525V162H57.4855ZM59.7923 154.364C59.7923 155.517 59.9613 156.535 60.2994 157.416C60.6375 158.291 61.1313 158.977 61.7809 159.474C62.4306 159.965 63.226 160.21 64.1673 160.21C65.1484 160.21 65.967 159.952 66.6233 159.435C67.2861 158.911 67.7833 158.208 68.1147 157.327C68.4528 156.438 68.6218 155.451 68.6218 154.364C68.6218 153.29 68.4561 152.322 68.1247 151.46C67.7999 150.592 67.306 149.906 66.6431 149.402C65.9869 148.892 65.1616 148.636 64.1673 148.636C63.2127 148.636 62.4107 148.878 61.761 149.362C61.1114 149.839 60.6209 150.509 60.2895 151.371C59.958 152.226 59.7923 153.223 59.7923 154.364Z" fill="white"/>
<path d="M80.9613 162.318C79.4897 162.318 78.2203 161.993 77.1531 161.344C76.0925 160.687 75.2738 159.773 74.6971 158.599C74.127 157.42 73.842 156.047 73.842 154.483C73.842 152.919 74.127 151.54 74.6971 150.347C75.2738 149.147 76.0759 148.212 77.1034 147.543C78.1375 146.866 79.3439 146.528 80.7227 146.528C81.5181 146.528 82.3037 146.661 83.0792 146.926C83.8548 147.191 84.5608 147.622 85.1971 148.219C85.8335 148.809 86.3406 149.591 86.7184 150.565C87.0963 151.54 87.2852 152.74 87.2852 154.165V155.159H75.5125V153.131H84.8988C84.8988 152.269 84.7265 151.5 84.3818 150.824C84.0437 150.148 83.5598 149.614 82.9301 149.223C82.307 148.832 81.5712 148.636 80.7227 148.636C79.788 148.636 78.9793 148.868 78.2966 149.332C77.6204 149.79 77.1001 150.386 76.7355 151.122C76.3709 151.858 76.1886 152.647 76.1886 153.489V154.841C76.1886 155.994 76.3875 156.972 76.7852 157.774C77.1895 158.57 77.7497 159.176 78.4656 159.594C79.1815 160.005 80.0134 160.21 80.9613 160.21C81.5778 160.21 82.1346 160.124 82.6318 159.952C83.1356 159.773 83.5698 159.508 83.9343 159.156C84.2989 158.798 84.5806 158.354 84.7795 157.824L87.0466 158.46C86.8079 159.229 86.4069 159.905 85.8434 160.489C85.28 161.065 84.584 161.516 83.7554 161.841C82.9268 162.159 81.9954 162.318 80.9613 162.318Z" fill="white"/>
<path d="M99.048 162V141.636H105.929C107.526 141.636 108.832 141.925 109.846 142.501C110.867 143.071 111.623 143.844 112.113 144.818C112.604 145.793 112.849 146.88 112.849 148.08C112.849 149.279 112.604 150.37 112.113 151.351C111.629 152.332 110.88 153.114 109.866 153.697C108.852 154.274 107.553 154.562 105.968 154.562H101.037V152.375H105.889C106.983 152.375 107.861 152.186 108.524 151.808C109.187 151.43 109.667 150.92 109.966 150.277C110.271 149.627 110.423 148.895 110.423 148.08C110.423 147.264 110.271 146.535 109.966 145.892C109.667 145.249 109.183 144.745 108.514 144.381C107.844 144.009 106.956 143.824 105.849 143.824H101.514V162H99.048Z" fill="white"/>
<path d="M118.85 152.812V162H116.503V141.636H118.85V149.114H119.049C119.407 148.325 119.944 147.698 120.659 147.234C121.382 146.764 122.343 146.528 123.543 146.528C124.584 146.528 125.495 146.737 126.277 147.155C127.06 147.566 127.666 148.199 128.097 149.054C128.534 149.902 128.753 150.983 128.753 152.295V162H126.407V152.455C126.407 151.241 126.092 150.303 125.462 149.641C124.839 148.971 123.974 148.636 122.867 148.636C122.098 148.636 121.409 148.799 120.799 149.124C120.195 149.448 119.718 149.922 119.367 150.545C119.022 151.169 118.85 151.924 118.85 152.812Z" fill="white"/>
<path d="M139.251 162.318C137.872 162.318 136.662 161.99 135.621 161.334C134.587 160.678 133.779 159.759 133.195 158.58C132.619 157.4 132.33 156.021 132.33 154.443C132.33 152.852 132.619 151.464 133.195 150.277C133.779 149.09 134.587 148.169 135.621 147.513C136.662 146.857 137.872 146.528 139.251 146.528C140.63 146.528 141.836 146.857 142.87 147.513C143.911 148.169 144.719 149.09 145.296 150.277C145.88 151.464 146.171 152.852 146.171 154.443C146.171 156.021 145.88 157.4 145.296 158.58C144.719 159.759 143.911 160.678 142.87 161.334C141.836 161.99 140.63 162.318 139.251 162.318ZM139.251 160.21C140.298 160.21 141.16 159.942 141.836 159.405C142.512 158.868 143.013 158.162 143.337 157.287C143.662 156.412 143.825 155.464 143.825 154.443C143.825 153.422 143.662 152.471 143.337 151.589C143.013 150.708 142.512 149.995 141.836 149.452C141.16 148.908 140.298 148.636 139.251 148.636C138.203 148.636 137.342 148.908 136.666 149.452C135.989 149.995 135.489 150.708 135.164 151.589C134.839 152.471 134.677 153.422 134.677 154.443C134.677 155.464 134.839 156.412 135.164 157.287C135.489 158.162 135.989 158.868 136.666 159.405C137.342 159.942 138.203 160.21 139.251 160.21Z" fill="white"/>
<path d="M156.395 146.727V148.716H148.48V146.727H156.395ZM150.787 143.068H153.134V157.625C153.134 158.288 153.23 158.785 153.422 159.116C153.621 159.441 153.873 159.66 154.178 159.773C154.49 159.879 154.818 159.932 155.162 159.932C155.421 159.932 155.633 159.919 155.799 159.892C155.964 159.859 156.097 159.832 156.196 159.812L156.674 161.92C156.515 161.98 156.293 162.04 156.007 162.099C155.722 162.166 155.361 162.199 154.924 162.199C154.261 162.199 153.611 162.056 152.975 161.771C152.345 161.486 151.821 161.052 151.404 160.469C150.993 159.885 150.787 159.15 150.787 158.261V143.068Z" fill="white"/>
<path d="M165.966 162.318C164.587 162.318 163.377 161.99 162.336 161.334C161.302 160.678 160.494 159.759 159.91 158.58C159.333 157.4 159.045 156.021 159.045 154.443C159.045 152.852 159.333 151.464 159.91 150.277C160.494 149.09 161.302 148.169 162.336 147.513C163.377 146.857 164.587 146.528 165.966 146.528C167.344 146.528 168.551 146.857 169.585 147.513C170.626 148.169 171.434 149.09 172.011 150.277C172.594 151.464 172.886 152.852 172.886 154.443C172.886 156.021 172.594 157.4 172.011 158.58C171.434 159.759 170.626 160.678 169.585 161.334C168.551 161.99 167.344 162.318 165.966 162.318ZM165.966 160.21C167.013 160.21 167.875 159.942 168.551 159.405C169.227 158.868 169.727 158.162 170.052 157.287C170.377 156.412 170.539 155.464 170.539 154.443C170.539 153.422 170.377 152.471 170.052 151.589C169.727 150.708 169.227 149.995 168.551 149.452C167.875 148.908 167.013 148.636 165.966 148.636C164.918 148.636 164.056 148.908 163.38 149.452C162.704 149.995 162.204 150.708 161.879 151.589C161.554 152.471 161.392 153.422 161.392 154.443C161.392 155.464 161.554 156.412 161.879 157.287C162.204 158.162 162.704 158.868 163.38 159.405C164.056 159.942 164.918 160.21 165.966 160.21Z" fill="white"/>
<path d="M187.286 150.148L185.178 150.744C185.046 150.393 184.85 150.052 184.592 149.72C184.34 149.382 183.995 149.104 183.558 148.885C183.12 148.666 182.56 148.557 181.877 148.557C180.943 148.557 180.164 148.772 179.541 149.203C178.924 149.627 178.616 150.168 178.616 150.824C178.616 151.407 178.828 151.868 179.252 152.206C179.676 152.544 180.339 152.826 181.241 153.051L183.508 153.608C184.873 153.939 185.891 154.446 186.56 155.129C187.23 155.805 187.565 156.677 187.565 157.744C187.565 158.619 187.313 159.402 186.809 160.091C186.312 160.78 185.616 161.324 184.721 161.722C183.826 162.119 182.785 162.318 181.599 162.318C180.041 162.318 178.752 161.98 177.731 161.304C176.71 160.628 176.064 159.64 175.792 158.341L178.019 157.784C178.231 158.606 178.632 159.223 179.222 159.634C179.819 160.044 180.598 160.25 181.559 160.25C182.653 160.25 183.521 160.018 184.164 159.554C184.814 159.083 185.139 158.52 185.139 157.864C185.139 157.333 184.953 156.889 184.582 156.531C184.21 156.167 183.64 155.895 182.871 155.716L180.326 155.119C178.927 154.788 177.9 154.274 177.244 153.578C176.594 152.875 176.269 151.997 176.269 150.943C176.269 150.081 176.511 149.319 176.995 148.656C177.486 147.993 178.152 147.473 178.994 147.095C179.842 146.717 180.803 146.528 181.877 146.528C183.389 146.528 184.575 146.86 185.437 147.523C186.305 148.186 186.922 149.061 187.286 150.148Z" fill="white"/>
<path d="M193.444 152.812V162H191.097V141.636H193.444V149.114H193.642C194 148.325 194.537 147.698 195.253 147.234C195.976 146.764 196.937 146.528 198.137 146.528C199.177 146.528 200.089 146.737 200.871 147.155C201.653 147.566 202.26 148.199 202.691 149.054C203.128 149.902 203.347 150.983 203.347 152.295V162H201V152.455C201 151.241 200.686 150.303 200.056 149.641C199.433 148.971 198.568 148.636 197.461 148.636C196.692 148.636 196.002 148.799 195.392 149.124C194.789 149.448 194.312 149.922 193.961 150.545C193.616 151.169 193.444 151.924 193.444 152.812Z" fill="white"/>
<path d="M213.844 162.318C212.466 162.318 211.256 161.99 210.215 161.334C209.181 160.678 208.372 159.759 207.789 158.58C207.212 157.4 206.924 156.021 206.924 154.443C206.924 152.852 207.212 151.464 207.789 150.277C208.372 149.09 209.181 148.169 210.215 147.513C211.256 146.857 212.466 146.528 213.844 146.528C215.223 146.528 216.43 146.857 217.464 147.513C218.505 148.169 219.313 149.09 219.89 150.277C220.473 151.464 220.765 152.852 220.765 154.443C220.765 156.021 220.473 157.4 219.89 158.58C219.313 159.759 218.505 160.678 217.464 161.334C216.43 161.99 215.223 162.318 213.844 162.318ZM213.844 160.21C214.892 160.21 215.754 159.942 216.43 159.405C217.106 158.868 217.606 158.162 217.931 157.287C218.256 156.412 218.418 155.464 218.418 154.443C218.418 153.422 218.256 152.471 217.931 151.589C217.606 150.708 217.106 149.995 216.43 149.452C215.754 148.908 214.892 148.636 213.844 148.636C212.797 148.636 211.935 148.908 211.259 149.452C210.583 149.995 210.083 150.708 209.758 151.589C209.433 152.471 209.271 153.422 209.271 154.443C209.271 155.464 209.433 156.412 209.758 157.287C210.083 158.162 210.583 158.868 211.259 159.405C211.935 159.942 212.797 160.21 213.844 160.21Z" fill="white"/>
<path d="M224.347 167.727V146.727H226.614V149.153H226.892C227.065 148.888 227.303 148.55 227.608 148.139C227.92 147.722 228.364 147.35 228.941 147.026C229.524 146.694 230.313 146.528 231.307 146.528C232.593 146.528 233.727 146.85 234.708 147.493C235.689 148.136 236.454 149.047 237.005 150.227C237.555 151.407 237.83 152.799 237.83 154.403C237.83 156.021 237.555 157.423 237.005 158.609C236.454 159.789 235.692 160.704 234.718 161.354C233.743 161.997 232.62 162.318 231.347 162.318C230.366 162.318 229.58 162.156 228.99 161.831C228.4 161.5 227.946 161.125 227.628 160.707C227.31 160.283 227.065 159.932 226.892 159.653H226.694V167.727H224.347ZM226.654 154.364C226.654 155.517 226.823 156.535 227.161 157.416C227.499 158.291 227.993 158.977 228.642 159.474C229.292 159.965 230.088 160.21 231.029 160.21C232.01 160.21 232.829 159.952 233.485 159.435C234.148 158.911 234.645 158.208 234.976 157.327C235.314 156.438 235.483 155.451 235.483 154.364C235.483 153.29 235.318 152.322 234.986 151.46C234.661 150.592 234.168 149.906 233.505 149.402C232.848 148.892 232.023 148.636 231.029 148.636C230.074 148.636 229.272 148.878 228.623 149.362C227.973 149.839 227.482 150.509 227.151 151.371C226.82 152.226 226.654 153.223 226.654 154.364Z" fill="white"/>
<path d="M6.30117 212.636L12.3466 229.778H12.5853L18.6307 212.636H21.2159L13.7387 233H11.1932L3.71594 212.636H6.30117Z" fill="white"/>
<path d="M24.0696 233V217.727H26.4162V233H24.0696ZM25.2628 215.182C24.8054 215.182 24.411 215.026 24.0796 214.714C23.7548 214.403 23.5924 214.028 23.5924 213.591C23.5924 213.153 23.7548 212.779 24.0796 212.467C24.411 212.156 24.8054 212 25.2628 212C25.7202 212 26.1113 212.156 26.4361 212.467C26.7676 212.779 26.9333 213.153 26.9333 213.591C26.9333 214.028 26.7676 214.403 26.4361 214.714C26.1113 215.026 25.7202 215.182 25.2628 215.182Z" fill="white"/>
<path d="M41.5323 221.148L39.4244 221.744C39.2918 221.393 39.0963 221.052 38.8377 220.72C38.5859 220.382 38.2412 220.104 37.8037 219.885C37.3662 219.666 36.806 219.557 36.1233 219.557C35.1886 219.557 34.4097 219.772 33.7866 220.203C33.1701 220.627 32.8619 221.168 32.8619 221.824C32.8619 222.407 33.074 222.868 33.4983 223.206C33.9225 223.544 34.5854 223.826 35.4869 224.051L37.7539 224.608C39.1195 224.939 40.137 225.446 40.8065 226.129C41.476 226.805 41.8108 227.677 41.8108 228.744C41.8108 229.619 41.5589 230.402 41.0551 231.091C40.5579 231.78 39.8619 232.324 38.967 232.722C38.0721 233.119 37.0314 233.318 35.8448 233.318C34.2871 233.318 32.9978 232.98 31.977 232.304C30.9561 231.628 30.3098 230.64 30.038 229.341L32.2653 228.784C32.4774 229.606 32.8785 230.223 33.4684 230.634C34.065 231.044 34.8439 231.25 35.8051 231.25C36.8988 231.25 37.7672 231.018 38.4102 230.554C39.0598 230.083 39.3846 229.52 39.3846 228.864C39.3846 228.333 39.199 227.889 38.8278 227.531C38.4566 227.167 37.8865 226.895 37.1176 226.716L34.5721 226.119C33.1734 225.788 32.146 225.274 31.4897 224.578C30.8401 223.875 30.5153 222.997 30.5153 221.943C30.5153 221.081 30.7573 220.319 31.2412 219.656C31.7317 218.993 32.3979 218.473 33.2397 218.095C34.0882 217.717 35.0494 217.528 36.1233 217.528C37.6346 217.528 38.8212 217.86 39.6829 218.523C40.5513 219.186 41.1678 220.061 41.5323 221.148Z" fill="white"/>
<path d="M54.9681 226.756V217.727H57.3147V233H54.9681V230.415H54.809C54.451 231.19 53.8942 231.85 53.1385 232.393C52.3828 232.93 51.4283 233.199 50.2749 233.199C49.3203 233.199 48.4719 232.99 47.7294 232.572C46.987 232.148 46.4037 231.512 45.9794 230.663C45.5552 229.808 45.3431 228.731 45.3431 227.432V217.727H47.6897V227.273C47.6897 228.386 48.0012 229.275 48.6243 229.937C49.2541 230.6 50.0561 230.932 51.0306 230.932C51.6139 230.932 52.2072 230.783 52.8104 230.484C53.4203 230.186 53.9307 229.729 54.3417 229.112C54.7593 228.496 54.9681 227.71 54.9681 226.756Z" fill="white"/>
<path d="M66.1069 233.358C65.1391 233.358 64.2608 233.176 63.472 232.811C62.6832 232.44 62.0567 231.906 61.5927 231.21C61.1287 230.508 60.8967 229.659 60.8967 228.665C60.8967 227.79 61.069 227.08 61.4137 226.537C61.7584 225.987 62.2191 225.556 62.7958 225.244C63.3725 224.933 64.0089 224.701 64.7049 224.548C65.4076 224.389 66.1135 224.263 66.8228 224.17C67.7509 224.051 68.5032 223.962 69.0799 223.902C69.6633 223.836 70.0875 223.726 70.3527 223.574C70.6244 223.421 70.7603 223.156 70.7603 222.778V222.699C70.7603 221.718 70.4919 220.955 69.9549 220.412C69.4246 219.868 68.6192 219.597 67.5387 219.597C66.4185 219.597 65.5402 219.842 64.9038 220.332C64.2674 220.823 63.82 221.347 63.5615 221.903L61.3342 221.108C61.7319 220.18 62.2622 219.457 62.9251 218.94C63.5946 218.417 64.3238 218.052 65.1126 217.847C65.9081 217.634 66.6903 217.528 67.4592 217.528C67.9497 217.528 68.5132 217.588 69.1495 217.707C69.7925 217.82 70.4123 218.055 71.0089 218.413C71.6121 218.771 72.1126 219.312 72.5103 220.034C72.9081 220.757 73.1069 221.724 73.1069 222.937V233H70.7603V230.932H70.641C70.4819 231.263 70.2168 231.618 69.8456 231.996C69.4743 232.374 68.9805 232.695 68.364 232.96C67.7475 233.225 66.9952 233.358 66.1069 233.358ZM66.4649 231.25C67.3929 231.25 68.1751 231.068 68.8115 230.703C69.4545 230.339 69.9384 229.868 70.2632 229.291C70.5946 228.714 70.7603 228.108 70.7603 227.472V225.324C70.6609 225.443 70.4421 225.553 70.1041 225.652C69.7726 225.745 69.3882 225.828 68.9507 225.901C68.5198 225.967 68.0989 226.026 67.6879 226.08C67.2835 226.126 66.9554 226.166 66.7035 226.199C66.0937 226.278 65.5236 226.408 64.9933 226.587C64.4696 226.759 64.0454 227.021 63.7206 227.372C63.4024 227.717 63.2433 228.187 63.2433 228.784C63.2433 229.599 63.5449 230.216 64.1481 230.634C64.758 231.044 65.5302 231.25 66.4649 231.25Z" fill="white"/>
<path d="M79.7365 212.636V233H77.3899V212.636H79.7365Z" fill="white"/>
<path d="M103.364 217.727C103.245 216.72 102.761 215.937 101.912 215.381C101.064 214.824 100.023 214.545 98.7902 214.545C97.8886 214.545 97.0998 214.691 96.4237 214.983C95.7542 215.275 95.2305 215.676 94.8527 216.186C94.4814 216.696 94.2958 217.277 94.2958 217.926C94.2958 218.47 94.4251 218.937 94.6836 219.328C94.9488 219.713 95.2868 220.034 95.6978 220.293C96.1088 220.544 96.5397 220.753 96.9904 220.919C97.4412 221.078 97.8555 221.207 98.2333 221.307L100.302 221.864C100.832 222.003 101.422 222.195 102.071 222.44C102.728 222.686 103.354 223.02 103.951 223.445C104.554 223.862 105.051 224.399 105.442 225.055C105.833 225.712 106.029 226.517 106.029 227.472C106.029 228.572 105.74 229.566 105.164 230.455C104.594 231.343 103.758 232.049 102.658 232.572C101.564 233.096 100.235 233.358 98.6708 233.358C97.2125 233.358 95.9497 233.123 94.8825 232.652C93.8219 232.181 92.9867 231.525 92.3768 230.683C91.7736 229.841 91.4322 228.864 91.3527 227.75H93.8981C93.9644 228.519 94.2229 229.155 94.6737 229.659C95.1311 230.156 95.7078 230.527 96.4038 230.773C97.1065 231.011 97.8621 231.131 98.6708 231.131C99.6121 231.131 100.457 230.978 101.206 230.673C101.955 230.362 102.549 229.931 102.986 229.381C103.424 228.824 103.642 228.174 103.642 227.432C103.642 226.756 103.454 226.205 103.076 225.781C102.698 225.357 102.201 225.012 101.584 224.747C100.968 224.482 100.302 224.25 99.5856 224.051L97.0799 223.335C95.489 222.878 94.2296 222.225 93.3015 221.376C92.3735 220.528 91.9095 219.418 91.9095 218.045C91.9095 216.905 92.2177 215.911 92.8342 215.062C93.4573 214.207 94.2925 213.544 95.3399 213.074C96.3939 212.597 97.5705 212.358 98.8697 212.358C100.182 212.358 101.349 212.593 102.37 213.064C103.391 213.528 104.199 214.164 104.796 214.973C105.399 215.782 105.717 216.7 105.75 217.727H103.364Z" fill="white"/>
<path d="M116.407 217.727V219.716H108.492V217.727H116.407ZM110.799 214.068H113.146V228.625C113.146 229.288 113.242 229.785 113.434 230.116C113.633 230.441 113.885 230.66 114.19 230.773C114.501 230.879 114.829 230.932 115.174 230.932C115.433 230.932 115.645 230.919 115.81 230.892C115.976 230.859 116.109 230.832 116.208 230.812L116.685 232.92C116.526 232.98 116.304 233.04 116.019 233.099C115.734 233.166 115.373 233.199 114.935 233.199C114.273 233.199 113.623 233.056 112.987 232.771C112.357 232.486 111.833 232.052 111.416 231.469C111.005 230.885 110.799 230.15 110.799 229.261V214.068Z" fill="white"/>
<path d="M129.562 226.756V217.727H131.908V233H129.562V230.415H129.403C129.045 231.19 128.488 231.85 127.732 232.393C126.977 232.93 126.022 233.199 124.869 233.199C123.914 233.199 123.066 232.99 122.323 232.572C121.581 232.148 120.997 231.512 120.573 230.663C120.149 229.808 119.937 228.731 119.937 227.432V217.727H122.283V227.273C122.283 228.386 122.595 229.275 123.218 229.937C123.848 230.6 124.65 230.932 125.624 230.932C126.208 230.932 126.801 230.783 127.404 230.484C128.014 230.186 128.524 229.729 128.935 229.112C129.353 228.496 129.562 227.71 129.562 226.756Z" fill="white"/>
<path d="M141.973 233.318C140.701 233.318 139.577 232.997 138.603 232.354C137.628 231.704 136.866 230.789 136.316 229.609C135.766 228.423 135.49 227.021 135.49 225.403C135.49 223.799 135.766 222.407 136.316 221.227C136.866 220.047 137.632 219.136 138.613 218.493C139.594 217.85 140.727 217.528 142.013 217.528C143.007 217.528 143.793 217.694 144.37 218.026C144.953 218.35 145.397 218.722 145.702 219.139C146.014 219.55 146.256 219.888 146.428 220.153H146.627V212.636H148.973V233H146.706V230.653H146.428C146.256 230.932 146.01 231.283 145.692 231.707C145.374 232.125 144.92 232.5 144.33 232.831C143.74 233.156 142.954 233.318 141.973 233.318ZM142.292 231.21C143.233 231.21 144.028 230.965 144.678 230.474C145.328 229.977 145.821 229.291 146.159 228.416C146.498 227.535 146.667 226.517 146.667 225.364C146.667 224.223 146.501 223.226 146.169 222.371C145.838 221.509 145.347 220.839 144.698 220.362C144.048 219.878 143.246 219.636 142.292 219.636C141.297 219.636 140.469 219.892 139.806 220.402C139.15 220.906 138.656 221.592 138.324 222.46C137.999 223.322 137.837 224.29 137.837 225.364C137.837 226.451 138.003 227.438 138.334 228.327C138.672 229.208 139.169 229.911 139.826 230.435C140.489 230.952 141.311 231.21 142.292 231.21Z" fill="white"/>
<path d="M153.597 233V217.727H155.944V233H153.597ZM154.79 215.182C154.333 215.182 153.938 215.026 153.607 214.714C153.282 214.403 153.12 214.028 153.12 213.591C153.12 213.153 153.282 212.779 153.607 212.467C153.938 212.156 154.333 212 154.79 212C155.248 212 155.639 212.156 155.963 212.467C156.295 212.779 156.461 213.153 156.461 213.591C156.461 214.028 156.295 214.403 155.963 214.714C155.639 215.026 155.248 215.182 154.79 215.182Z" fill="white"/>
<path d="M166.446 233.318C165.067 233.318 163.858 232.99 162.817 232.334C161.783 231.678 160.974 230.759 160.391 229.58C159.814 228.4 159.526 227.021 159.526 225.443C159.526 223.852 159.814 222.464 160.391 221.277C160.974 220.09 161.783 219.169 162.817 218.513C163.858 217.857 165.067 217.528 166.446 217.528C167.825 217.528 169.031 217.857 170.065 218.513C171.106 219.169 171.915 220.09 172.492 221.277C173.075 222.464 173.367 223.852 173.367 225.443C173.367 227.021 173.075 228.4 172.492 229.58C171.915 230.759 171.106 231.678 170.065 232.334C169.031 232.99 167.825 233.318 166.446 233.318ZM166.446 231.21C167.493 231.21 168.355 230.942 169.031 230.405C169.707 229.868 170.208 229.162 170.533 228.287C170.858 227.412 171.02 226.464 171.02 225.443C171.02 224.422 170.858 223.471 170.533 222.589C170.208 221.708 169.707 220.995 169.031 220.452C168.355 219.908 167.493 219.636 166.446 219.636C165.399 219.636 164.537 219.908 163.861 220.452C163.185 220.995 162.684 221.708 162.359 222.589C162.035 223.471 161.872 224.422 161.872 225.443C161.872 226.464 162.035 227.412 162.359 228.287C162.684 229.162 163.185 229.868 163.861 230.405C164.537 230.942 165.399 231.21 166.446 231.21Z" fill="white"/>
<path d="M201.528 219H199.062C198.916 218.291 198.661 217.668 198.297 217.131C197.939 216.594 197.501 216.143 196.984 215.778C196.474 215.407 195.907 215.129 195.284 214.943C194.661 214.758 194.011 214.665 193.335 214.665C192.102 214.665 190.985 214.976 189.984 215.599C188.99 216.223 188.198 217.141 187.608 218.354C187.024 219.567 186.733 221.055 186.733 222.818C186.733 224.581 187.024 226.07 187.608 227.283C188.198 228.496 188.99 229.414 189.984 230.037C190.985 230.66 192.102 230.972 193.335 230.972C194.011 230.972 194.661 230.879 195.284 230.693C195.907 230.508 196.474 230.232 196.984 229.868C197.501 229.497 197.939 229.043 198.297 228.506C198.661 227.962 198.916 227.339 199.062 226.636H201.528C201.342 227.677 201.004 228.608 200.514 229.43C200.023 230.252 199.414 230.952 198.684 231.528C197.955 232.098 197.137 232.533 196.228 232.831C195.327 233.129 194.362 233.278 193.335 233.278C191.598 233.278 190.054 232.854 188.701 232.006C187.349 231.157 186.285 229.951 185.51 228.386C184.734 226.822 184.346 224.966 184.346 222.818C184.346 220.67 184.734 218.814 185.51 217.25C186.285 215.686 187.349 214.479 188.701 213.631C190.054 212.782 191.598 212.358 193.335 212.358C194.362 212.358 195.327 212.507 196.228 212.805C197.137 213.104 197.955 213.541 198.684 214.118C199.414 214.688 200.023 215.384 200.514 216.206C201.004 217.021 201.342 217.953 201.528 219Z" fill="white"/>
<path d="M211.399 233.318C210.02 233.318 208.811 232.99 207.77 232.334C206.736 231.678 205.927 230.759 205.344 229.58C204.767 228.4 204.479 227.021 204.479 225.443C204.479 223.852 204.767 222.464 205.344 221.277C205.927 220.09 206.736 219.169 207.77 218.513C208.811 217.857 210.02 217.528 211.399 217.528C212.778 217.528 213.984 217.857 215.018 218.513C216.059 219.169 216.868 220.09 217.445 221.277C218.028 222.464 218.32 223.852 218.32 225.443C218.32 227.021 218.028 228.4 217.445 229.58C216.868 230.759 216.059 231.678 215.018 232.334C213.984 232.99 212.778 233.318 211.399 233.318ZM211.399 231.21C212.447 231.21 213.308 230.942 213.984 230.405C214.661 229.868 215.161 229.162 215.486 228.287C215.811 227.412 215.973 226.464 215.973 225.443C215.973 224.422 215.811 223.471 215.486 222.589C215.161 221.708 214.661 220.995 213.984 220.452C213.308 219.908 212.447 219.636 211.399 219.636C210.352 219.636 209.49 219.908 208.814 220.452C208.138 220.995 207.637 221.708 207.313 222.589C206.988 223.471 206.825 224.422 206.825 225.443C206.825 226.464 206.988 227.412 207.313 228.287C207.637 229.162 208.138 229.868 208.814 230.405C209.49 230.942 210.352 231.21 211.399 231.21Z" fill="white"/>
<path d="M227.669 233.318C226.396 233.318 225.272 232.997 224.298 232.354C223.324 231.704 222.561 230.789 222.011 229.609C221.461 228.423 221.186 227.021 221.186 225.403C221.186 223.799 221.461 222.407 222.011 221.227C222.561 220.047 223.327 219.136 224.308 218.493C225.289 217.85 226.422 217.528 227.708 217.528C228.703 217.528 229.488 217.694 230.065 218.026C230.648 218.35 231.092 218.722 231.397 219.139C231.709 219.55 231.951 219.888 232.123 220.153H232.322V212.636H234.669V233H232.402V230.653H232.123C231.951 230.932 231.706 231.283 231.387 231.707C231.069 232.125 230.615 232.5 230.025 232.831C229.435 233.156 228.65 233.318 227.669 233.318ZM227.987 231.21C228.928 231.21 229.724 230.965 230.373 230.474C231.023 229.977 231.517 229.291 231.855 228.416C232.193 227.535 232.362 226.517 232.362 225.364C232.362 224.223 232.196 223.226 231.865 222.371C231.533 221.509 231.043 220.839 230.393 220.362C229.744 219.878 228.941 219.636 227.987 219.636C226.993 219.636 226.164 219.892 225.501 220.402C224.845 220.906 224.351 221.592 224.02 222.46C223.695 223.322 223.532 224.29 223.532 225.364C223.532 226.451 223.698 227.438 224.03 228.327C224.368 229.208 224.865 229.911 225.521 230.435C226.184 230.952 227.006 231.21 227.987 231.21Z" fill="white"/>
<path d="M245.696 233.318C244.224 233.318 242.955 232.993 241.887 232.344C240.827 231.687 240.008 230.773 239.432 229.599C238.861 228.42 238.576 227.047 238.576 225.483C238.576 223.919 238.861 222.54 239.432 221.347C240.008 220.147 240.81 219.212 241.838 218.543C242.872 217.866 244.078 217.528 245.457 217.528C246.253 217.528 247.038 217.661 247.814 217.926C248.589 218.191 249.295 218.622 249.932 219.219C250.568 219.809 251.075 220.591 251.453 221.565C251.831 222.54 252.02 223.74 252.02 225.165V226.159H240.247V224.131H249.633C249.633 223.269 249.461 222.5 249.116 221.824C248.778 221.148 248.294 220.614 247.664 220.223C247.041 219.832 246.306 219.636 245.457 219.636C244.522 219.636 243.714 219.868 243.031 220.332C242.355 220.79 241.834 221.386 241.47 222.122C241.105 222.858 240.923 223.647 240.923 224.489V225.841C240.923 226.994 241.122 227.972 241.52 228.774C241.924 229.57 242.484 230.176 243.2 230.594C243.916 231.005 244.748 231.21 245.696 231.21C246.312 231.21 246.869 231.124 247.366 230.952C247.87 230.773 248.304 230.508 248.669 230.156C249.033 229.798 249.315 229.354 249.514 228.824L251.781 229.46C251.542 230.229 251.141 230.905 250.578 231.489C250.014 232.065 249.318 232.516 248.49 232.841C247.661 233.159 246.73 233.318 245.696 233.318Z" fill="white"/>
<path d="M19.3864 289C19.1676 288.33 18.8793 287.731 18.5213 287.2C18.17 286.663 17.7491 286.206 17.2586 285.828C16.7747 285.45 16.2245 285.162 15.608 284.963C14.9915 284.764 14.3154 284.665 13.5796 284.665C12.3731 284.665 11.2761 284.976 10.2884 285.599C9.3007 286.223 8.51518 287.141 7.93185 288.354C7.34852 289.567 7.05685 291.055 7.05685 292.818C7.05685 294.581 7.35183 296.07 7.94179 297.283C8.53176 298.496 9.33053 299.414 10.3381 300.037C11.3457 300.66 12.4792 300.972 13.7387 300.972C14.9053 300.972 15.9328 300.723 16.8211 300.226C17.7159 299.722 18.412 299.013 18.9091 298.098C19.4129 297.177 19.6648 296.093 19.6648 294.847L20.4205 295.006H14.2955V292.818H22.0512V295.006C22.0512 296.683 21.6932 298.141 20.9773 299.381C20.268 300.62 19.287 301.581 18.0341 302.264C16.7879 302.94 15.3561 303.278 13.7387 303.278C11.9356 303.278 10.3514 302.854 8.98583 302.006C7.62693 301.157 6.56632 299.951 5.80401 298.386C5.04833 296.822 4.67049 294.966 4.67049 292.818C4.67049 291.207 4.88592 289.759 5.31679 288.473C5.75429 287.18 6.37077 286.08 7.16623 285.172C7.96168 284.264 8.90297 283.568 9.99009 283.084C11.0772 282.6 12.2737 282.358 13.5796 282.358C14.6534 282.358 15.6544 282.52 16.5824 282.845C17.5171 283.163 18.349 283.617 19.0782 284.207C19.814 284.791 20.4271 285.49 20.9176 286.305C21.4082 287.114 21.7462 288.012 21.9319 289H19.3864Z" fill="white"/>
<path d="M26.9134 303V287.727H29.26V303H26.9134ZM28.1066 285.182C27.6492 285.182 27.2548 285.026 26.9233 284.714C26.5985 284.403 26.4361 284.028 26.4361 283.591C26.4361 283.153 26.5985 282.779 26.9233 282.467C27.2548 282.156 27.6492 282 28.1066 282C28.564 282 28.9551 282.156 29.2799 282.467C29.6113 282.779 29.777 283.153 29.777 283.591C29.777 284.028 29.6113 284.403 29.2799 284.714C28.9551 285.026 28.564 285.182 28.1066 285.182Z" fill="white"/>
<path d="M40.2 287.727V289.716H32.2852V287.727H40.2ZM34.592 284.068H36.9386V298.625C36.9386 299.288 37.0347 299.785 37.227 300.116C37.4258 300.441 37.6777 300.66 37.9826 300.773C38.2942 300.879 38.6223 300.932 38.967 300.932C39.2255 300.932 39.4377 300.919 39.6034 300.892C39.7691 300.859 39.9017 300.832 40.0011 300.812L40.4784 302.92C40.3193 302.98 40.0972 303.04 39.8122 303.099C39.5271 303.166 39.1659 303.199 38.7284 303.199C38.0655 303.199 37.4159 303.056 36.7795 302.771C36.1498 302.486 35.6261 302.052 35.2085 301.469C34.7975 300.885 34.592 300.15 34.592 299.261V284.068Z" fill="white"/>
<path d="M46.4045 293.812V303H44.0579V282.636H46.4045V290.114H46.6034C46.9613 289.325 47.4983 288.698 48.2142 288.234C48.9367 287.764 49.8979 287.528 51.0977 287.528C52.1384 287.528 53.0499 287.737 53.8321 288.155C54.6143 288.566 55.2208 289.199 55.6517 290.054C56.0892 290.902 56.3079 291.983 56.3079 293.295V303H53.9613V293.455C53.9613 292.241 53.6465 291.304 53.0167 290.641C52.3936 289.971 51.5286 289.636 50.4216 289.636C49.6526 289.636 48.9632 289.799 48.3534 290.124C47.7502 290.448 47.2729 290.922 46.9216 291.545C46.5769 292.169 46.4045 292.924 46.4045 293.812Z" fill="white"/>
<path d="M70.2259 296.756V287.727H72.5725V303H70.2259V300.415H70.0668C69.7088 301.19 69.152 301.85 68.3963 302.393C67.6407 302.93 66.6861 303.199 65.5327 303.199C64.5782 303.199 63.7297 302.99 62.9872 302.572C62.2448 302.148 61.6615 301.512 61.2372 300.663C60.813 299.808 60.6009 298.731 60.6009 297.432V287.727H62.9475V297.273C62.9475 298.386 63.259 299.275 63.8821 299.938C64.5119 300.6 65.314 300.932 66.2884 300.932C66.8717 300.932 67.465 300.783 68.0682 300.484C68.6781 300.186 69.1885 299.729 69.5995 299.112C70.0171 298.496 70.2259 297.71 70.2259 296.756Z" fill="white"/>
<path d="M77.1886 303V282.636H79.5352V290.153H79.7341C79.9064 289.888 80.145 289.55 80.45 289.139C80.7615 288.722 81.2056 288.35 81.7823 288.026C82.3657 287.694 83.1545 287.528 84.1488 287.528C85.4348 287.528 86.5683 287.85 87.5494 288.493C88.5305 289.136 89.2961 290.047 89.8463 291.227C90.3965 292.407 90.6716 293.799 90.6716 295.403C90.6716 297.021 90.3965 298.423 89.8463 299.609C89.2961 300.789 88.5338 301.704 87.5593 302.354C86.5849 302.997 85.4613 303.318 84.1886 303.318C83.2075 303.318 82.422 303.156 81.8321 302.831C81.2421 302.5 80.788 302.125 80.4698 301.707C80.1517 301.283 79.9064 300.932 79.7341 300.653H79.4556V303H77.1886ZM79.4954 295.364C79.4954 296.517 79.6644 297.535 80.0025 298.416C80.3406 299.291 80.8344 299.977 81.4841 300.474C82.1337 300.965 82.9291 301.21 83.8704 301.21C84.8515 301.21 85.6701 300.952 86.3264 300.435C86.9893 299.911 87.4864 299.208 87.8179 298.327C88.1559 297.438 88.325 296.451 88.325 295.364C88.325 294.29 88.1592 293.322 87.8278 292.46C87.503 291.592 87.0091 290.906 86.3463 290.402C85.69 289.892 84.8647 289.636 83.8704 289.636C82.9159 289.636 82.1138 289.878 81.4642 290.362C80.8145 290.839 80.324 291.509 79.9926 292.371C79.6611 293.226 79.4954 294.223 79.4954 295.364Z" fill="white"/>
<path d="M330 78H946V86H330V78Z" fill="#656B6B"/>
<path d="M330 6.99999H946V15H330V6.99999Z" fill="#656B6B"/>
<path d="M330 78H880V86H330V78Z" fill="white"/>
<path d="M330 6.99999H780V15H330V6.99999Z" fill="white"/>
<path d="M330 290H946V297H330V290Z" fill="#656B6B"/>
<path d="M330 219H946V227H330V219Z" fill="#656B6B"/>
<path d="M330 149H946V156H330V149Z" fill="#656B6B"/>
<path d="M330 149H650V156H330V149Z" fill="white"/>
<path d="M330 219H834V227H330V219Z" fill="white"/>
<path d="M330 289H834V297H330V289Z" fill="white"/>
<path d="M888 81.5C888 86.1944 883.299 90 877.5 90C871.701 90 867 86.1944 867 81.5C867 76.8056 871.701 73 877.5 73C883.299 73 888 76.8056 888 81.5Z" fill="white"/>
<path d="M790 11C790 15.4183 785.299 19 779.5 19C773.701 19 769 15.4183 769 11C769 6.58171 773.701 2.99999 779.5 2.99999C785.299 2.99999 790 6.58171 790 11Z" fill="white"/>
<path d="M659 152C659 156.418 654.299 160 648.5 160C642.701 160 638 156.418 638 152C638 147.582 642.701 144 648.5 144C654.299 144 659 147.582 659 152Z" fill="white"/>
<path d="M844 222.5C844 227.194 839.299 231 833.5 231C827.701 231 823 227.194 823 222.5C823 217.806 827.701 214 833.5 214C839.299 214 844 217.806 844 222.5Z" fill="white"/>
<path d="M844 292.5C844 297.194 839.299 301 833.5 301C827.701 301 823 297.194 823 292.5C823 287.806 827.701 284 833.5 284C839.299 284 844 287.806 844 292.5Z" fill="white"/>
</svg>
