<svg width="57" height="560" viewBox="0 0 57 560" fill="none" xmlns="http://www.w3.org/2000/svg">
<path d="M0.363658 527.074H44V532.358H5.05116L5.05116 554.347H44V559.631H0.36366L0.363658 527.074Z" fill="white"/>
<path d="M44.6818 473.802C44.6818 476.756 43.9787 479.348 42.5725 481.578C41.1662 483.794 39.1989 485.527 36.6705 486.777C34.1421 488.013 31.1875 488.631 27.8068 488.631C24.3977 488.631 21.4219 488.013 18.8793 486.777C16.3367 485.527 14.3622 483.794 12.956 481.578C11.5497 479.348 10.8466 476.756 10.8466 473.802C10.8466 470.847 11.5497 468.262 12.956 466.046C14.3622 463.816 16.3367 462.083 18.8793 460.847C21.4219 459.597 24.3977 458.972 27.8068 458.972C31.1875 458.972 34.1421 459.597 36.6705 460.847C39.1989 462.083 41.1662 463.816 42.5725 466.046C43.9787 468.262 44.6818 470.847 44.6818 473.802ZM40.1648 473.802C40.1648 471.557 39.5895 469.711 38.4389 468.262C37.2884 466.813 35.7756 465.74 33.9006 465.044C32.0256 464.348 29.9943 464 27.8068 464C25.6193 464 23.581 464.348 21.6918 465.044C19.8026 465.74 18.2756 466.813 17.1108 468.262C15.946 469.711 15.3637 471.557 15.3637 473.802C15.3637 476.046 15.946 477.892 17.1108 479.341C18.2756 480.79 19.8026 481.863 21.6918 482.559C23.581 483.255 25.6193 483.603 27.8068 483.603C29.9943 483.603 32.0256 483.255 33.9006 482.559C35.7756 481.863 37.2884 480.79 38.4389 479.341C39.5895 477.892 40.1648 476.046 40.1648 473.802Z" fill="white"/>
<path d="M56.2727 421.296H11.2727V416.438H16.4716V415.842C15.9034 415.472 15.179 414.961 14.2983 414.308C13.4034 413.64 12.608 412.688 11.912 411.452C11.2017 410.202 10.8466 408.512 10.8466 406.381C10.8466 403.626 11.5355 401.197 12.9134 399.094C14.2912 396.992 16.2443 395.352 18.7727 394.173C21.3012 392.994 24.2841 392.404 27.7216 392.404C31.1875 392.404 34.1918 392.994 36.7344 394.173C39.2628 395.352 41.223 396.985 42.6151 399.073C43.9929 401.161 44.6818 403.569 44.6818 406.296C44.6818 408.398 44.3338 410.082 43.6378 411.346C42.9276 412.61 42.125 413.583 41.2301 414.265C40.321 414.947 39.5682 415.472 38.9716 415.842V416.268H56.2727V421.296ZM27.6364 416.353C30.108 416.353 32.2884 415.991 34.1776 415.266C36.0526 414.542 37.5227 413.484 38.5881 412.092C39.6392 410.7 40.1648 408.995 40.1648 406.978C40.1648 404.876 39.6108 403.121 38.5029 401.715C37.3807 400.295 35.875 399.229 33.9858 398.519C32.0824 397.795 29.9659 397.433 27.6364 397.433C25.3352 397.433 23.2614 397.788 21.4148 398.498C19.554 399.194 18.0838 400.252 17.0043 401.673C15.9105 403.079 15.3637 404.847 15.3637 406.978C15.3637 409.023 15.8821 410.742 16.9191 412.134C17.9418 413.526 19.3764 414.577 21.223 415.288C23.0554 415.998 25.1932 416.353 27.6364 416.353Z" fill="white"/>
<path d="M15.9602 359.011H11.2727L11.2727 332.42H15.9602V343.159H44V348.187H15.9602L15.9602 359.011Z" fill="white"/>
<path d="M55.1648 283.489H0.363648L0.363647 278.461H55.1648L55.1648 283.489ZM44.6818 283.489C44.6818 285.705 44.2841 287.722 43.4886 289.54C42.679 291.358 41.5355 292.921 40.0583 294.228C38.5668 295.534 36.7841 296.543 34.7102 297.253C32.6364 297.963 30.3352 298.319 27.8068 298.319C25.25 298.319 22.9347 297.963 20.8608 297.253C18.7727 296.543 16.983 295.534 15.4915 294.228C14 292.921 12.8565 291.358 12.0611 289.54C11.2514 287.722 10.8466 285.705 10.8466 283.489V281.955H44.6818V283.489ZM40.1648 283.489V282.637H15.3636V283.489C15.3636 285.165 15.7046 286.621 16.3864 287.857C17.054 289.093 17.9702 290.115 19.135 290.925C20.2855 291.721 21.6065 292.317 23.098 292.715C24.5895 293.098 26.1591 293.29 27.8068 293.29C29.9943 293.29 32.0256 292.942 33.9006 292.246C35.7756 291.55 37.2884 290.478 38.4389 289.029C39.5895 287.58 40.1648 285.733 40.1648 283.489ZM44.6818 278.461V279.995H10.8466V278.461C10.8466 276.245 11.2514 274.228 12.0611 272.409C12.8565 270.591 14 269.029 15.4915 267.722C16.983 266.415 18.7727 265.407 20.8608 264.696C22.9347 263.986 25.25 263.631 27.8068 263.631C30.3352 263.631 32.6364 263.986 34.7102 264.696C36.7841 265.407 38.5668 266.415 40.0583 267.722C41.5355 269.029 42.679 270.591 43.4886 272.409C44.2841 274.228 44.6818 276.245 44.6818 278.461ZM40.1648 278.461C40.1648 276.77 39.8381 275.314 39.1847 274.093C38.5171 272.857 37.608 271.841 36.4574 271.046C35.2926 270.236 33.9716 269.64 32.4943 269.256C31.0029 268.858 29.4404 268.659 27.8068 268.659C25.6193 268.659 23.581 269.007 21.6918 269.703C19.8026 270.4 18.2756 271.472 17.1108 272.921C15.946 274.37 15.3636 276.216 15.3636 278.461V279.313H40.1648V278.461Z" fill="white"/>
<path d="M44.6818 212.649C44.6818 215.604 43.9787 218.196 42.5725 220.426C41.1662 222.642 39.1989 224.375 36.6705 225.625C34.1421 226.861 31.1875 227.479 27.8068 227.479C24.3977 227.479 21.4219 226.861 18.8793 225.625C16.3367 224.375 14.3622 222.642 12.956 220.426C11.5497 218.196 10.8466 215.604 10.8466 212.649C10.8466 209.695 11.5497 207.109 12.956 204.893C14.3622 202.663 16.3367 200.93 18.8793 199.695C21.4219 198.445 24.3977 197.82 27.8068 197.82C31.1875 197.82 34.1421 198.445 36.6705 199.695C39.1989 200.93 41.1662 202.663 42.5725 204.893C43.9787 207.109 44.6818 209.695 44.6818 212.649ZM40.1648 212.649C40.1648 210.405 39.5895 208.558 38.4389 207.109C37.2884 205.661 35.7756 204.588 33.9006 203.892C32.0256 203.196 29.9943 202.848 27.8068 202.848C25.6193 202.848 23.581 203.196 21.6918 203.892C19.8026 204.588 18.2756 205.661 17.1108 207.109C15.946 208.558 15.3636 210.405 15.3636 212.649C15.3636 214.893 15.946 216.74 17.1108 218.189C18.2756 219.638 19.8026 220.71 21.6918 221.406C23.581 222.102 25.6193 222.45 27.8068 222.45C29.9943 222.45 32.0256 222.102 33.9006 221.406C35.7756 220.71 37.2884 219.638 38.4389 218.189C39.5895 216.74 40.1648 214.893 40.1648 212.649Z" fill="white"/>
<path d="M44 163.042H39.3125V161.848C39.3125 160.868 39.1207 160.051 38.7372 159.398C38.3395 158.745 37.6506 158.219 36.6705 157.821C35.6761 157.409 34.2983 157.097 32.5369 156.884C30.7614 156.657 28.5028 156.493 25.7614 156.394L11.2727 155.797L11.2727 133.979H44V139.007H15.9602V151.025L27.6364 151.536C30.321 151.65 32.6861 151.891 34.7315 152.26C36.7628 152.615 38.4673 153.162 39.8452 153.901C41.223 154.625 42.26 155.591 42.956 156.799C43.652 158.006 44 159.519 44 161.337V163.042Z" fill="white"/>
<path d="M36.5852 89.7248L11.2727 73.9577V68.1623L44 68.1623V73.1907H18.6875L44 88.8725V94.7532H11.2727V89.7248L36.5852 89.7248Z" fill="white"/>
<path d="M44.6818 15.657C44.6818 18.6115 43.9787 21.2038 42.5724 23.434C41.1662 25.6499 39.1989 27.3828 36.6705 28.6328C34.142 29.8686 31.1875 30.4865 27.8068 30.4865C24.3977 30.4865 21.4219 29.8686 18.8793 28.6328C16.3366 27.3828 14.3622 25.6499 12.956 23.434C11.5497 21.2038 10.8466 18.6115 10.8466 15.657C10.8466 12.7024 11.5497 10.1172 12.956 7.90129C14.3622 5.67117 16.3366 3.93822 18.8793 2.70242C21.4219 1.45242 24.3977 0.827423 27.8068 0.827423C31.1875 0.827423 34.142 1.45242 36.6705 2.70242C39.1989 3.93822 41.1662 5.67117 42.5724 7.90129C43.9787 10.1172 44.6818 12.7024 44.6818 15.657ZM40.1648 15.657C40.1648 13.4127 39.5895 11.5661 38.4389 10.1172C37.2883 8.66833 35.7756 7.59589 33.9006 6.89987C32.0256 6.20384 29.9943 5.85583 27.8068 5.85583C25.6193 5.85583 23.581 6.20384 21.6918 6.89987C19.8026 7.59589 18.2756 8.66833 17.1108 10.1172C15.946 11.5661 15.3636 13.4127 15.3636 15.657C15.3636 17.9013 15.946 19.7479 17.1108 21.1967C18.2756 22.6456 19.8026 23.718 21.6918 24.4141C23.581 25.1101 25.6193 25.4581 27.8068 25.4581C29.9943 25.4581 32.0256 25.1101 33.9006 24.4141C35.7756 23.718 37.2884 22.6456 38.4389 21.1967C39.5895 19.7479 40.1648 17.9013 40.1648 15.657Z" fill="white"/>
</svg>
