<svg width="1440" height="2279" viewBox="0 0 1440 2279" fill="none" xmlns="http://www.w3.org/2000/svg">
<path d="M233.466 314V293.636H245.676V295.824H235.932V302.705H244.761V304.892H235.932V314H233.466Z" fill="white"/>
<path d="M249.581 314V298.727H251.928V314H249.581ZM250.775 296.182C250.317 296.182 249.923 296.026 249.591 295.714C249.266 295.403 249.104 295.028 249.104 294.591C249.104 294.153 249.266 293.779 249.591 293.467C249.923 293.156 250.317 293 250.775 293C251.232 293 251.623 293.156 251.948 293.467C252.279 293.779 252.445 294.153 252.445 294.591C252.445 295.028 252.279 295.403 251.948 295.714C251.623 296.026 251.232 296.182 250.775 296.182Z" fill="white"/>
<path d="M262.391 320.045C261.257 320.045 260.283 319.9 259.467 319.608C258.652 319.323 257.973 318.945 257.429 318.474C256.892 318.01 256.464 317.513 256.146 316.983L258.016 315.67C258.228 315.949 258.496 316.267 258.821 316.625C259.146 316.99 259.59 317.304 260.153 317.57C260.723 317.841 261.469 317.977 262.391 317.977C263.624 317.977 264.641 317.679 265.443 317.082C266.245 316.486 266.646 315.551 266.646 314.278V311.176H266.447C266.275 311.455 266.03 311.799 265.712 312.21C265.4 312.615 264.949 312.976 264.359 313.294C263.776 313.606 262.987 313.761 261.993 313.761C260.76 313.761 259.653 313.47 258.672 312.886C257.697 312.303 256.925 311.455 256.355 310.341C255.792 309.227 255.51 307.875 255.51 306.284C255.51 304.72 255.785 303.357 256.335 302.197C256.885 301.031 257.651 300.129 258.632 299.493C259.613 298.85 260.747 298.528 262.033 298.528C263.027 298.528 263.816 298.694 264.399 299.026C264.989 299.35 265.44 299.722 265.751 300.139C266.07 300.55 266.315 300.888 266.487 301.153H266.726V298.727H268.993V314.438C268.993 315.75 268.695 316.817 268.098 317.639C267.508 318.468 266.713 319.074 265.712 319.459C264.717 319.85 263.61 320.045 262.391 320.045ZM262.311 311.653C263.252 311.653 264.048 311.438 264.697 311.007C265.347 310.576 265.841 309.956 266.179 309.148C266.517 308.339 266.686 307.371 266.686 306.244C266.686 305.144 266.52 304.173 266.189 303.331C265.857 302.489 265.367 301.83 264.717 301.352C264.068 300.875 263.266 300.636 262.311 300.636C261.317 300.636 260.488 300.888 259.825 301.392C259.169 301.896 258.675 302.572 258.344 303.42C258.019 304.269 257.857 305.21 257.857 306.244C257.857 307.305 258.022 308.243 258.354 309.058C258.692 309.867 259.189 310.503 259.845 310.967C260.508 311.425 261.33 311.653 262.311 311.653Z" fill="white"/>
<path d="M273.288 314V298.727H275.555V301.114H275.754C276.072 300.298 276.586 299.665 277.295 299.214C278.005 298.757 278.857 298.528 279.851 298.528C280.858 298.528 281.697 298.757 282.366 299.214C283.043 299.665 283.57 300.298 283.947 301.114H284.107C284.498 300.325 285.084 299.698 285.866 299.234C286.649 298.764 287.587 298.528 288.68 298.528C290.046 298.528 291.163 298.956 292.031 299.811C292.9 300.66 293.334 301.982 293.334 303.778V314H290.987V303.778C290.987 302.652 290.679 301.846 290.062 301.362C289.446 300.878 288.72 300.636 287.885 300.636C286.811 300.636 285.979 300.961 285.389 301.611C284.799 302.254 284.504 303.069 284.504 304.057V314H282.118V303.54C282.118 302.671 281.836 301.972 281.273 301.442C280.709 300.905 279.983 300.636 279.095 300.636C278.485 300.636 277.915 300.799 277.385 301.124C276.861 301.448 276.437 301.899 276.112 302.476C275.794 303.046 275.635 303.706 275.635 304.455V314H273.288Z" fill="white"/>
<path d="M302.119 314.358C301.151 314.358 300.272 314.176 299.484 313.811C298.695 313.44 298.068 312.906 297.604 312.21C297.14 311.508 296.908 310.659 296.908 309.665C296.908 308.79 297.081 308.08 297.425 307.537C297.77 306.987 298.231 306.556 298.808 306.244C299.384 305.933 300.021 305.701 300.717 305.548C301.419 305.389 302.125 305.263 302.835 305.17C303.763 305.051 304.515 304.962 305.092 304.902C305.675 304.836 306.099 304.726 306.364 304.574C306.636 304.421 306.772 304.156 306.772 303.778V303.699C306.772 302.718 306.504 301.955 305.967 301.412C305.436 300.868 304.631 300.597 303.55 300.597C302.43 300.597 301.552 300.842 300.915 301.332C300.279 301.823 299.832 302.347 299.573 302.903L297.346 302.108C297.744 301.18 298.274 300.457 298.937 299.94C299.606 299.417 300.335 299.052 301.124 298.847C301.92 298.634 302.702 298.528 303.471 298.528C303.961 298.528 304.525 298.588 305.161 298.707C305.804 298.82 306.424 299.055 307.021 299.413C307.624 299.771 308.124 300.312 308.522 301.034C308.92 301.757 309.119 302.724 309.119 303.938V314H306.772V311.932H306.653C306.494 312.263 306.228 312.618 305.857 312.996C305.486 313.374 304.992 313.695 304.376 313.96C303.759 314.225 303.007 314.358 302.119 314.358ZM302.477 312.25C303.405 312.25 304.187 312.068 304.823 311.703C305.466 311.339 305.95 310.868 306.275 310.291C306.606 309.714 306.772 309.108 306.772 308.472V306.324C306.673 306.443 306.454 306.553 306.116 306.652C305.784 306.745 305.4 306.828 304.962 306.901C304.532 306.967 304.111 307.027 303.7 307.08C303.295 307.126 302.967 307.166 302.715 307.199C302.105 307.278 301.535 307.408 301.005 307.587C300.481 307.759 300.057 308.021 299.732 308.372C299.414 308.717 299.255 309.187 299.255 309.784C299.255 310.599 299.557 311.216 300.16 311.634C300.77 312.044 301.542 312.25 302.477 312.25Z" fill="white"/>
<path d="M243.83 222.636H246.295V236.119C246.295 237.511 245.967 238.754 245.311 239.848C244.661 240.935 243.743 241.794 242.557 242.423C241.37 243.046 239.978 243.358 238.381 243.358C236.783 243.358 235.391 243.046 234.205 242.423C233.018 241.794 232.097 240.935 231.44 239.848C230.791 238.754 230.466 237.511 230.466 236.119V222.636H232.932V235.92C232.932 236.915 233.151 237.8 233.588 238.575C234.026 239.344 234.649 239.951 235.457 240.395C236.273 240.832 237.247 241.051 238.381 241.051C239.514 241.051 240.489 240.832 241.304 240.395C242.119 239.951 242.742 239.344 243.173 238.575C243.611 237.8 243.83 236.915 243.83 235.92V222.636Z" fill="white"/>
<path d="M252.413 222.636L257.663 231.108H257.822L263.072 222.636H265.975L259.572 232.818L265.975 243H263.072L257.822 234.688H257.663L252.413 243H249.51L256.072 232.818L249.51 222.636H252.413Z" fill="white"/>
<path d="M275.702 231.724V233.912H266.793V231.724H275.702Z" fill="white"/>
<path d="M290.053 239.54L297.411 227.727H300.115V243H297.769V231.188L290.451 243H287.706V227.727H290.053V239.54Z" fill="white"/>
<path d="M314.635 234.29V236.477H306.203V234.29H314.635ZM306.76 227.727V243H304.413V227.727H306.76ZM316.425 227.727V243H314.078V227.727H316.425Z" fill="white"/>
<path d="M326.915 243.318C325.483 243.318 324.25 242.98 323.216 242.304C322.182 241.628 321.386 240.697 320.83 239.51C320.273 238.323 319.994 236.968 319.994 235.443C319.994 233.892 320.279 232.523 320.849 231.337C321.426 230.143 322.228 229.212 323.256 228.543C324.29 227.866 325.496 227.528 326.875 227.528C327.949 227.528 328.917 227.727 329.778 228.125C330.64 228.523 331.346 229.08 331.896 229.795C332.446 230.511 332.788 231.347 332.92 232.301H330.574C330.395 231.605 329.997 230.989 329.381 230.452C328.771 229.908 327.949 229.636 326.915 229.636C326 229.636 325.198 229.875 324.509 230.352C323.826 230.823 323.292 231.489 322.908 232.351C322.53 233.206 322.341 234.21 322.341 235.364C322.341 236.544 322.527 237.571 322.898 238.446C323.276 239.321 323.806 240 324.489 240.484C325.178 240.968 325.987 241.21 326.915 241.21C327.525 241.21 328.078 241.104 328.575 240.892C329.072 240.68 329.493 240.375 329.838 239.977C330.183 239.58 330.428 239.102 330.574 238.545H332.92C332.788 239.447 332.46 240.259 331.936 240.982C331.419 241.697 330.733 242.268 329.878 242.692C329.029 243.109 328.042 243.318 326.915 243.318Z" fill="white"/>
<path d="M335.148 229.915V227.727H347.557V229.915H342.545V243H340.199V229.915H335.148Z" fill="white"/>
<path d="M352.491 248.727C352.093 248.727 351.739 248.694 351.427 248.628C351.116 248.568 350.9 248.509 350.781 248.449L351.377 246.381C351.948 246.527 352.451 246.58 352.889 246.54C353.326 246.5 353.714 246.304 354.052 245.953C354.397 245.608 354.712 245.048 354.997 244.273L355.434 243.08L349.787 227.727H352.332L356.548 239.898H356.707L360.923 227.727H363.468L356.985 245.227C356.694 246.016 356.333 246.669 355.902 247.186C355.471 247.71 354.97 248.098 354.4 248.349C353.837 248.601 353.2 248.727 352.491 248.727Z" fill="white"/>
<path d="M366.566 248.727V227.727H368.833V230.153H369.111C369.283 229.888 369.522 229.55 369.827 229.139C370.139 228.722 370.583 228.35 371.159 228.026C371.743 227.694 372.532 227.528 373.526 227.528C374.812 227.528 375.945 227.85 376.926 228.493C377.908 229.136 378.673 230.047 379.223 231.227C379.774 232.407 380.049 233.799 380.049 235.403C380.049 237.021 379.774 238.423 379.223 239.609C378.673 240.789 377.911 241.704 376.936 242.354C375.962 242.997 374.838 243.318 373.566 243.318C372.585 243.318 371.799 243.156 371.209 242.831C370.619 242.5 370.165 242.125 369.847 241.707C369.529 241.283 369.283 240.932 369.111 240.653H368.912V248.727H366.566ZM368.873 235.364C368.873 236.517 369.042 237.535 369.38 238.416C369.718 239.291 370.212 239.977 370.861 240.474C371.511 240.965 372.306 241.21 373.248 241.21C374.229 241.21 375.047 240.952 375.703 240.435C376.366 239.911 376.864 239.208 377.195 238.327C377.533 237.438 377.702 236.451 377.702 235.364C377.702 234.29 377.536 233.322 377.205 232.46C376.88 231.592 376.386 230.906 375.723 230.402C375.067 229.892 374.242 229.636 373.248 229.636C372.293 229.636 371.491 229.878 370.841 230.362C370.192 230.839 369.701 231.509 369.37 232.371C369.038 233.226 368.873 234.223 368.873 235.364Z" fill="white"/>
<path d="M391.98 239.818L397.31 227.727H399.537L392.935 243H391.026L384.543 227.727H386.73L391.98 239.818ZM385.975 227.727V243H383.628V227.727H385.975ZM397.986 243V227.727H400.333V243H397.986Z" fill="white"/>
<path d="M411.032 243.318C409.56 243.318 408.291 242.993 407.223 242.344C406.163 241.688 405.344 240.773 404.767 239.599C404.197 238.42 403.912 237.047 403.912 235.483C403.912 233.919 404.197 232.54 404.767 231.347C405.344 230.147 406.146 229.212 407.174 228.543C408.208 227.866 409.414 227.528 410.793 227.528C411.588 227.528 412.374 227.661 413.15 227.926C413.925 228.191 414.631 228.622 415.267 229.219C415.904 229.809 416.411 230.591 416.789 231.565C417.167 232.54 417.355 233.74 417.355 235.165V236.159H405.583V234.131H414.969C414.969 233.269 414.797 232.5 414.452 231.824C414.114 231.148 413.63 230.614 413 230.223C412.377 229.832 411.641 229.636 410.793 229.636C409.858 229.636 409.05 229.868 408.367 230.332C407.691 230.79 407.17 231.386 406.806 232.122C406.441 232.858 406.259 233.647 406.259 234.489V235.841C406.259 236.994 406.458 237.972 406.855 238.774C407.26 239.57 407.82 240.176 408.536 240.594C409.252 241.005 410.084 241.21 411.032 241.21C411.648 241.21 412.205 241.124 412.702 240.952C413.206 240.773 413.64 240.508 414.005 240.156C414.369 239.798 414.651 239.354 414.85 238.824L417.117 239.46C416.878 240.229 416.477 240.905 415.914 241.489C415.35 242.065 414.654 242.516 413.826 242.841C412.997 243.159 412.066 243.318 411.032 243.318Z" fill="white"/>
<path d="M431.147 234.29V236.477H422.715V234.29H431.147ZM423.272 227.727V243H420.925V227.727H423.272ZM432.936 227.727V243H430.59V227.727H432.936Z" fill="white"/>
<path d="M435.144 229.915V227.727H447.553V229.915H442.542V243H440.195V229.915H435.144Z" fill="white"/>
<path d="M453.004 233.256H457.379C459.169 233.256 460.538 233.71 461.486 234.618C462.434 235.526 462.908 236.676 462.908 238.068C462.908 238.983 462.696 239.815 462.271 240.564C461.847 241.306 461.224 241.9 460.402 242.344C459.58 242.781 458.572 243 457.379 243H450.976V227.727H453.322V240.812H457.379C458.307 240.812 459.07 240.567 459.666 240.077C460.263 239.586 460.561 238.956 460.561 238.188C460.561 237.379 460.263 236.719 459.666 236.209C459.07 235.698 458.307 235.443 457.379 235.443H453.004V233.256ZM465.334 243V227.727H467.68V243H465.334Z" fill="white"/>
<path d="M235.301 384H232.716L240.193 363.636H242.739L250.216 384H247.631L241.545 366.858H241.386L235.301 384ZM236.256 376.045H246.676V378.233H236.256V376.045Z" fill="white"/>
<path d="M258.837 384.318C257.564 384.318 256.44 383.997 255.466 383.354C254.491 382.704 253.729 381.789 253.179 380.609C252.629 379.423 252.354 378.021 252.354 376.403C252.354 374.799 252.629 373.407 253.179 372.227C253.729 371.047 254.495 370.136 255.476 369.493C256.457 368.85 257.59 368.528 258.876 368.528C259.871 368.528 260.656 368.694 261.233 369.026C261.816 369.35 262.26 369.722 262.565 370.139C262.877 370.55 263.119 370.888 263.291 371.153H263.49V363.636H265.837V384H263.57V381.653H263.291C263.119 381.932 262.874 382.283 262.555 382.707C262.237 383.125 261.783 383.5 261.193 383.831C260.603 384.156 259.818 384.318 258.837 384.318ZM259.155 382.21C260.096 382.21 260.892 381.965 261.541 381.474C262.191 380.977 262.685 380.291 263.023 379.416C263.361 378.535 263.53 377.517 263.53 376.364C263.53 375.223 263.364 374.226 263.033 373.371C262.701 372.509 262.211 371.839 261.561 371.362C260.911 370.878 260.109 370.636 259.155 370.636C258.16 370.636 257.332 370.892 256.669 371.402C256.013 371.906 255.519 372.592 255.188 373.46C254.863 374.322 254.7 375.29 254.7 376.364C254.7 377.451 254.866 378.438 255.197 379.327C255.536 380.208 256.033 380.911 256.689 381.435C257.352 381.952 258.174 382.21 259.155 382.21Z" fill="white"/>
<path d="M276.665 384.318C275.286 384.318 274.076 383.99 273.036 383.334C272.001 382.678 271.193 381.759 270.609 380.58C270.033 379.4 269.744 378.021 269.744 376.443C269.744 374.852 270.033 373.464 270.609 372.277C271.193 371.09 272.001 370.169 273.036 369.513C274.076 368.857 275.286 368.528 276.665 368.528C278.044 368.528 279.25 368.857 280.284 369.513C281.325 370.169 282.134 371.09 282.71 372.277C283.294 373.464 283.585 374.852 283.585 376.443C283.585 378.021 283.294 379.4 282.71 380.58C282.134 381.759 281.325 382.678 280.284 383.334C279.25 383.99 278.044 384.318 276.665 384.318ZM276.665 382.21C277.712 382.21 278.574 381.942 279.25 381.405C279.926 380.868 280.427 380.162 280.751 379.287C281.076 378.412 281.239 377.464 281.239 376.443C281.239 375.422 281.076 374.471 280.751 373.589C280.427 372.708 279.926 371.995 279.25 371.452C278.574 370.908 277.712 370.636 276.665 370.636C275.617 370.636 274.756 370.908 274.08 371.452C273.403 371.995 272.903 372.708 272.578 373.589C272.253 374.471 272.091 375.422 272.091 376.443C272.091 377.464 272.253 378.412 272.578 379.287C272.903 380.162 273.403 380.868 274.08 381.405C274.756 381.942 275.617 382.21 276.665 382.21Z" fill="white"/>
<path d="M287.485 384V363.636H289.832V371.153H290.031C290.203 370.888 290.442 370.55 290.747 370.139C291.058 369.722 291.502 369.35 292.079 369.026C292.663 368.694 293.451 368.528 294.446 368.528C295.732 368.528 296.865 368.85 297.846 369.493C298.827 370.136 299.593 371.047 300.143 372.227C300.693 373.407 300.968 374.799 300.968 376.403C300.968 378.021 300.693 379.423 300.143 380.609C299.593 381.789 298.831 382.704 297.856 383.354C296.882 383.997 295.758 384.318 294.485 384.318C293.504 384.318 292.719 384.156 292.129 383.831C291.539 383.5 291.085 383.125 290.767 382.707C290.449 382.283 290.203 381.932 290.031 381.653H289.752V384H287.485ZM289.792 376.364C289.792 377.517 289.961 378.535 290.299 379.416C290.637 380.291 291.131 380.977 291.781 381.474C292.431 381.965 293.226 382.21 294.167 382.21C295.148 382.21 295.967 381.952 296.623 381.435C297.286 380.911 297.783 380.208 298.115 379.327C298.453 378.438 298.622 377.451 298.622 376.364C298.622 375.29 298.456 374.322 298.125 373.46C297.8 372.592 297.306 371.906 296.643 371.402C295.987 370.892 295.162 370.636 294.167 370.636C293.213 370.636 292.411 370.878 291.761 371.362C291.111 371.839 290.621 372.509 290.289 373.371C289.958 374.226 289.792 375.223 289.792 376.364Z" fill="white"/>
<path d="M310.961 384.318C309.49 384.318 308.22 383.993 307.153 383.344C306.092 382.688 305.274 381.773 304.697 380.599C304.127 379.42 303.842 378.047 303.842 376.483C303.842 374.919 304.127 373.54 304.697 372.347C305.274 371.147 306.076 370.212 307.103 369.543C308.137 368.866 309.344 368.528 310.723 368.528C311.518 368.528 312.304 368.661 313.079 368.926C313.855 369.191 314.561 369.622 315.197 370.219C315.833 370.809 316.341 371.591 316.718 372.565C317.096 373.54 317.285 374.74 317.285 376.165V377.159H305.512V375.131H314.899C314.899 374.269 314.726 373.5 314.382 372.824C314.044 372.148 313.56 371.614 312.93 371.223C312.307 370.832 311.571 370.636 310.723 370.636C309.788 370.636 308.979 370.868 308.297 371.332C307.62 371.79 307.1 372.386 306.735 373.122C306.371 373.858 306.189 374.647 306.189 375.489V376.841C306.189 377.994 306.387 378.972 306.785 379.774C307.19 380.57 307.75 381.176 308.466 381.594C309.181 382.005 310.013 382.21 310.961 382.21C311.578 382.21 312.135 382.124 312.632 381.952C313.136 381.773 313.57 381.508 313.934 381.156C314.299 380.798 314.581 380.354 314.779 379.824L317.047 380.46C316.808 381.229 316.407 381.905 315.843 382.489C315.28 383.065 314.584 383.516 313.755 383.841C312.927 384.159 311.995 384.318 310.961 384.318Z" fill="white"/>
<path d="M329.048 384V363.636H335.929C337.526 363.636 338.832 363.925 339.846 364.501C340.867 365.072 341.623 365.844 342.113 366.818C342.604 367.793 342.849 368.88 342.849 370.08C342.849 371.279 342.604 372.37 342.113 373.351C341.629 374.332 340.88 375.114 339.866 375.697C338.852 376.274 337.553 376.562 335.968 376.562H331.037V374.375H335.889C336.983 374.375 337.861 374.186 338.524 373.808C339.187 373.43 339.667 372.92 339.966 372.277C340.27 371.627 340.423 370.895 340.423 370.08C340.423 369.264 340.27 368.535 339.966 367.892C339.667 367.249 339.183 366.745 338.514 366.381C337.844 366.009 336.956 365.824 335.849 365.824H331.514V384H329.048Z" fill="white"/>
<path d="M348.85 374.812V384H346.503V363.636H348.85V371.114H349.049C349.407 370.325 349.944 369.698 350.659 369.234C351.382 368.764 352.343 368.528 353.543 368.528C354.584 368.528 355.495 368.737 356.277 369.155C357.06 369.566 357.666 370.199 358.097 371.054C358.534 371.902 358.753 372.983 358.753 374.295V384H356.407V374.455C356.407 373.241 356.092 372.304 355.462 371.641C354.839 370.971 353.974 370.636 352.867 370.636C352.098 370.636 351.408 370.799 350.799 371.124C350.195 371.448 349.718 371.922 349.367 372.545C349.022 373.169 348.85 373.924 348.85 374.812Z" fill="white"/>
<path d="M369.251 384.318C367.872 384.318 366.662 383.99 365.621 383.334C364.587 382.678 363.779 381.759 363.195 380.58C362.619 379.4 362.33 378.021 362.33 376.443C362.33 374.852 362.619 373.464 363.195 372.277C363.779 371.09 364.587 370.169 365.621 369.513C366.662 368.857 367.872 368.528 369.251 368.528C370.629 368.528 371.836 368.857 372.87 369.513C373.911 370.169 374.719 371.09 375.296 372.277C375.88 373.464 376.171 374.852 376.171 376.443C376.171 378.021 375.88 379.4 375.296 380.58C374.719 381.759 373.911 382.678 372.87 383.334C371.836 383.99 370.629 384.318 369.251 384.318ZM369.251 382.21C370.298 382.21 371.16 381.942 371.836 381.405C372.512 380.868 373.013 380.162 373.337 379.287C373.662 378.412 373.825 377.464 373.825 376.443C373.825 375.422 373.662 374.471 373.337 373.589C373.013 372.708 372.512 371.995 371.836 371.452C371.16 370.908 370.298 370.636 369.251 370.636C368.203 370.636 367.342 370.908 366.665 371.452C365.989 371.995 365.489 372.708 365.164 373.589C364.839 374.471 364.677 375.422 364.677 376.443C364.677 377.464 364.839 378.412 365.164 379.287C365.489 380.162 365.989 380.868 366.665 381.405C367.342 381.942 368.203 382.21 369.251 382.21Z" fill="white"/>
<path d="M386.395 368.727V370.716H378.48V368.727H386.395ZM380.787 365.068H383.134V379.625C383.134 380.288 383.23 380.785 383.422 381.116C383.621 381.441 383.873 381.66 384.178 381.773C384.489 381.879 384.818 381.932 385.162 381.932C385.421 381.932 385.633 381.919 385.799 381.892C385.964 381.859 386.097 381.832 386.196 381.812L386.674 383.92C386.515 383.98 386.292 384.04 386.007 384.099C385.722 384.166 385.361 384.199 384.924 384.199C384.261 384.199 383.611 384.056 382.975 383.771C382.345 383.486 381.821 383.052 381.404 382.469C380.993 381.885 380.787 381.15 380.787 380.261V365.068Z" fill="white"/>
<path d="M395.966 384.318C394.587 384.318 393.377 383.99 392.336 383.334C391.302 382.678 390.493 381.759 389.91 380.58C389.333 379.4 389.045 378.021 389.045 376.443C389.045 374.852 389.333 373.464 389.91 372.277C390.493 371.09 391.302 370.169 392.336 369.513C393.377 368.857 394.587 368.528 395.966 368.528C397.344 368.528 398.551 368.857 399.585 369.513C400.626 370.169 401.434 371.09 402.011 372.277C402.594 373.464 402.886 374.852 402.886 376.443C402.886 378.021 402.594 379.4 402.011 380.58C401.434 381.759 400.626 382.678 399.585 383.334C398.551 383.99 397.344 384.318 395.966 384.318ZM395.966 382.21C397.013 382.21 397.875 381.942 398.551 381.405C399.227 380.868 399.727 380.162 400.052 379.287C400.377 378.412 400.539 377.464 400.539 376.443C400.539 375.422 400.377 374.471 400.052 373.589C399.727 372.708 399.227 371.995 398.551 371.452C397.875 370.908 397.013 370.636 395.966 370.636C394.918 370.636 394.056 370.908 393.38 371.452C392.704 371.995 392.204 372.708 391.879 373.589C391.554 374.471 391.392 375.422 391.392 376.443C391.392 377.464 391.554 378.412 391.879 379.287C392.204 380.162 392.704 380.868 393.38 381.405C394.056 381.942 394.918 382.21 395.966 382.21Z" fill="white"/>
<path d="M417.286 372.148L415.178 372.744C415.046 372.393 414.85 372.052 414.592 371.72C414.34 371.382 413.995 371.104 413.558 370.885C413.12 370.666 412.56 370.557 411.877 370.557C410.942 370.557 410.164 370.772 409.54 371.203C408.924 371.627 408.616 372.168 408.616 372.824C408.616 373.407 408.828 373.868 409.252 374.206C409.676 374.544 410.339 374.826 411.241 375.051L413.508 375.608C414.873 375.939 415.891 376.447 416.56 377.129C417.23 377.805 417.565 378.677 417.565 379.744C417.565 380.619 417.313 381.402 416.809 382.091C416.312 382.78 415.616 383.324 414.721 383.722C413.826 384.119 412.785 384.318 411.599 384.318C410.041 384.318 408.752 383.98 407.731 383.304C406.71 382.628 406.064 381.64 405.792 380.341L408.019 379.784C408.231 380.606 408.632 381.223 409.222 381.634C409.819 382.044 410.598 382.25 411.559 382.25C412.653 382.25 413.521 382.018 414.164 381.554C414.814 381.083 415.138 380.52 415.138 379.864C415.138 379.333 414.953 378.889 414.582 378.531C414.21 378.167 413.64 377.895 412.871 377.716L410.326 377.119C408.927 376.788 407.9 376.274 407.244 375.578C406.594 374.875 406.269 373.997 406.269 372.943C406.269 372.081 406.511 371.319 406.995 370.656C407.486 369.993 408.152 369.473 408.994 369.095C409.842 368.717 410.803 368.528 411.877 368.528C413.388 368.528 414.575 368.86 415.437 369.523C416.305 370.186 416.922 371.061 417.286 372.148Z" fill="white"/>
<path d="M423.444 374.812V384H421.097V363.636H423.444V371.114H423.642C424 370.325 424.537 369.698 425.253 369.234C425.976 368.764 426.937 368.528 428.137 368.528C429.177 368.528 430.089 368.737 430.871 369.155C431.653 369.566 432.26 370.199 432.691 371.054C433.128 371.902 433.347 372.983 433.347 374.295V384H431V374.455C431 373.241 430.685 372.304 430.056 371.641C429.433 370.971 428.568 370.636 427.461 370.636C426.692 370.636 426.002 370.799 425.392 371.124C424.789 371.448 424.312 371.922 423.961 372.545C423.616 373.169 423.444 373.924 423.444 374.812Z" fill="white"/>
<path d="M443.844 384.318C442.466 384.318 441.256 383.99 440.215 383.334C439.181 382.678 438.372 381.759 437.789 380.58C437.212 379.4 436.924 378.021 436.924 376.443C436.924 374.852 437.212 373.464 437.789 372.277C438.372 371.09 439.181 370.169 440.215 369.513C441.256 368.857 442.466 368.528 443.844 368.528C445.223 368.528 446.43 368.857 447.464 369.513C448.504 370.169 449.313 371.09 449.89 372.277C450.473 373.464 450.765 374.852 450.765 376.443C450.765 378.021 450.473 379.4 449.89 380.58C449.313 381.759 448.504 382.678 447.464 383.334C446.43 383.99 445.223 384.318 443.844 384.318ZM443.844 382.21C444.892 382.21 445.754 381.942 446.43 381.405C447.106 380.868 447.606 380.162 447.931 379.287C448.256 378.412 448.418 377.464 448.418 376.443C448.418 375.422 448.256 374.471 447.931 373.589C447.606 372.708 447.106 371.995 446.43 371.452C445.754 370.908 444.892 370.636 443.844 370.636C442.797 370.636 441.935 370.908 441.259 371.452C440.583 371.995 440.083 372.708 439.758 373.589C439.433 374.471 439.271 375.422 439.271 376.443C439.271 377.464 439.433 378.412 439.758 379.287C440.083 380.162 440.583 380.868 441.259 381.405C441.935 381.942 442.797 382.21 443.844 382.21Z" fill="white"/>
<path d="M454.347 389.727V368.727H456.614V371.153H456.892C457.065 370.888 457.303 370.55 457.608 370.139C457.92 369.722 458.364 369.35 458.941 369.026C459.524 368.694 460.313 368.528 461.307 368.528C462.593 368.528 463.727 368.85 464.708 369.493C465.689 370.136 466.454 371.047 467.005 372.227C467.555 373.407 467.83 374.799 467.83 376.403C467.83 378.021 467.555 379.423 467.005 380.609C466.454 381.789 465.692 382.704 464.718 383.354C463.743 383.997 462.62 384.318 461.347 384.318C460.366 384.318 459.58 384.156 458.99 383.831C458.4 383.5 457.946 383.125 457.628 382.707C457.31 382.283 457.065 381.932 456.892 381.653H456.694V389.727H454.347ZM456.654 376.364C456.654 377.517 456.823 378.535 457.161 379.416C457.499 380.291 457.993 380.977 458.642 381.474C459.292 381.965 460.087 382.21 461.029 382.21C462.01 382.21 462.828 381.952 463.485 381.435C464.148 380.911 464.645 380.208 464.976 379.327C465.314 378.438 465.483 377.451 465.483 376.364C465.483 375.29 465.318 374.322 464.986 373.46C464.661 372.592 464.167 371.906 463.505 371.402C462.848 370.892 462.023 370.636 461.029 370.636C460.074 370.636 459.272 370.878 458.623 371.362C457.973 371.839 457.482 372.509 457.151 373.371C456.819 374.226 456.654 375.223 456.654 376.364Z" fill="white"/>
<path d="M236.301 434.636L242.347 451.778H242.585L248.631 434.636H251.216L243.739 455H241.193L233.716 434.636H236.301Z" fill="white"/>
<path d="M254.07 455V439.727H256.416V455H254.07ZM255.263 437.182C254.805 437.182 254.411 437.026 254.08 436.714C253.755 436.403 253.592 436.028 253.592 435.591C253.592 435.153 253.755 434.779 254.08 434.467C254.411 434.156 254.805 434 255.263 434C255.72 434 256.111 434.156 256.436 434.467C256.768 434.779 256.933 435.153 256.933 435.591C256.933 436.028 256.768 436.403 256.436 436.714C256.111 437.026 255.72 437.182 255.263 437.182Z" fill="white"/>
<path d="M271.532 443.148L269.424 443.744C269.292 443.393 269.096 443.052 268.838 442.72C268.586 442.382 268.241 442.104 267.804 441.885C267.366 441.666 266.806 441.557 266.123 441.557C265.189 441.557 264.41 441.772 263.787 442.203C263.17 442.627 262.862 443.168 262.862 443.824C262.862 444.407 263.074 444.868 263.498 445.206C263.922 445.544 264.585 445.826 265.487 446.051L267.754 446.608C269.119 446.939 270.137 447.447 270.806 448.129C271.476 448.805 271.811 449.677 271.811 450.744C271.811 451.619 271.559 452.402 271.055 453.091C270.558 453.78 269.862 454.324 268.967 454.722C268.072 455.119 267.031 455.318 265.845 455.318C264.287 455.318 262.998 454.98 261.977 454.304C260.956 453.628 260.31 452.64 260.038 451.341L262.265 450.784C262.477 451.606 262.878 452.223 263.468 452.634C264.065 453.044 264.844 453.25 265.805 453.25C266.899 453.25 267.767 453.018 268.41 452.554C269.06 452.083 269.385 451.52 269.385 450.864C269.385 450.333 269.199 449.889 268.828 449.531C268.457 449.167 267.886 448.895 267.118 448.716L264.572 448.119C263.173 447.788 262.146 447.274 261.49 446.578C260.84 445.875 260.515 444.997 260.515 443.943C260.515 443.081 260.757 442.319 261.241 441.656C261.732 440.993 262.398 440.473 263.24 440.095C264.088 439.717 265.049 439.528 266.123 439.528C267.635 439.528 268.821 439.86 269.683 440.523C270.551 441.186 271.168 442.061 271.532 443.148Z" fill="white"/>
<path d="M284.968 448.756V439.727H287.315V455H284.968V452.415H284.809C284.451 453.19 283.894 453.85 283.138 454.393C282.383 454.93 281.428 455.199 280.275 455.199C279.32 455.199 278.472 454.99 277.729 454.572C276.987 454.148 276.404 453.512 275.979 452.663C275.555 451.808 275.343 450.731 275.343 449.432V439.727H277.69V449.273C277.69 450.386 278.001 451.275 278.624 451.938C279.254 452.6 280.056 452.932 281.031 452.932C281.614 452.932 282.207 452.783 282.81 452.484C283.42 452.186 283.931 451.729 284.342 451.112C284.759 450.496 284.968 449.71 284.968 448.756Z" fill="white"/>
<path d="M296.107 455.358C295.139 455.358 294.261 455.176 293.472 454.811C292.683 454.44 292.057 453.906 291.593 453.21C291.129 452.508 290.897 451.659 290.897 450.665C290.897 449.79 291.069 449.08 291.414 448.537C291.758 447.987 292.219 447.556 292.796 447.244C293.373 446.933 294.009 446.701 294.705 446.548C295.408 446.389 296.114 446.263 296.823 446.17C297.751 446.051 298.503 445.962 299.08 445.902C299.663 445.836 300.087 445.726 300.353 445.574C300.624 445.421 300.76 445.156 300.76 444.778V444.699C300.76 443.718 300.492 442.955 299.955 442.412C299.425 441.868 298.619 441.597 297.539 441.597C296.418 441.597 295.54 441.842 294.904 442.332C294.267 442.823 293.82 443.347 293.561 443.903L291.334 443.108C291.732 442.18 292.262 441.457 292.925 440.94C293.595 440.417 294.324 440.052 295.113 439.847C295.908 439.634 296.69 439.528 297.459 439.528C297.95 439.528 298.513 439.588 299.15 439.707C299.792 439.82 300.412 440.055 301.009 440.413C301.612 440.771 302.113 441.312 302.51 442.034C302.908 442.757 303.107 443.724 303.107 444.938V455H300.76V452.932H300.641C300.482 453.263 300.217 453.618 299.846 453.996C299.474 454.374 298.98 454.695 298.364 454.96C297.748 455.225 296.995 455.358 296.107 455.358ZM296.465 453.25C297.393 453.25 298.175 453.068 298.811 452.703C299.454 452.339 299.938 451.868 300.263 451.291C300.595 450.714 300.76 450.108 300.76 449.472V447.324C300.661 447.443 300.442 447.553 300.104 447.652C299.773 447.745 299.388 447.828 298.951 447.901C298.52 447.967 298.099 448.027 297.688 448.08C297.284 448.126 296.955 448.166 296.703 448.199C296.094 448.278 295.524 448.408 294.993 448.587C294.47 448.759 294.045 449.021 293.721 449.372C293.402 449.717 293.243 450.187 293.243 450.784C293.243 451.599 293.545 452.216 294.148 452.634C294.758 453.044 295.53 453.25 296.465 453.25Z" fill="white"/>
<path d="M309.737 434.636V455H307.39V434.636H309.737Z" fill="white"/>
<path d="M333.364 439.727C333.245 438.72 332.761 437.937 331.912 437.381C331.064 436.824 330.023 436.545 328.79 436.545C327.889 436.545 327.1 436.691 326.424 436.983C325.754 437.275 325.23 437.676 324.853 438.186C324.481 438.696 324.296 439.277 324.296 439.926C324.296 440.47 324.425 440.937 324.684 441.328C324.949 441.713 325.287 442.034 325.698 442.293C326.109 442.544 326.54 442.753 326.99 442.919C327.441 443.078 327.855 443.207 328.233 443.307L330.301 443.864C330.832 444.003 331.422 444.195 332.071 444.44C332.728 444.686 333.354 445.02 333.951 445.445C334.554 445.862 335.051 446.399 335.442 447.055C335.833 447.712 336.029 448.517 336.029 449.472C336.029 450.572 335.74 451.566 335.164 452.455C334.594 453.343 333.758 454.049 332.658 454.572C331.564 455.096 330.235 455.358 328.671 455.358C327.212 455.358 325.95 455.123 324.882 454.652C323.822 454.181 322.987 453.525 322.377 452.683C321.774 451.841 321.432 450.864 321.353 449.75H323.898C323.964 450.519 324.223 451.155 324.674 451.659C325.131 452.156 325.708 452.527 326.404 452.773C327.106 453.011 327.862 453.131 328.671 453.131C329.612 453.131 330.457 452.978 331.206 452.673C331.955 452.362 332.549 451.931 332.986 451.381C333.424 450.824 333.642 450.174 333.642 449.432C333.642 448.756 333.453 448.205 333.076 447.781C332.698 447.357 332.201 447.012 331.584 446.747C330.968 446.482 330.301 446.25 329.586 446.051L327.08 445.335C325.489 444.878 324.23 444.225 323.301 443.376C322.373 442.528 321.909 441.418 321.909 440.045C321.909 438.905 322.218 437.911 322.834 437.062C323.457 436.207 324.292 435.544 325.34 435.074C326.394 434.597 327.57 434.358 328.87 434.358C330.182 434.358 331.349 434.593 332.37 435.064C333.39 435.528 334.199 436.164 334.796 436.973C335.399 437.782 335.717 438.7 335.75 439.727H333.364Z" fill="white"/>
<path d="M346.407 439.727V441.716H338.492V439.727H346.407ZM340.799 436.068H343.146V450.625C343.146 451.288 343.242 451.785 343.434 452.116C343.633 452.441 343.885 452.66 344.19 452.773C344.501 452.879 344.829 452.932 345.174 452.932C345.433 452.932 345.645 452.919 345.81 452.892C345.976 452.859 346.109 452.832 346.208 452.812L346.685 454.92C346.526 454.98 346.304 455.04 346.019 455.099C345.734 455.166 345.373 455.199 344.935 455.199C344.272 455.199 343.623 455.056 342.987 454.771C342.357 454.486 341.833 454.052 341.415 453.469C341.005 452.885 340.799 452.15 340.799 451.261V436.068Z" fill="white"/>
<path d="M359.562 448.756V439.727H361.908V455H359.562V452.415H359.403C359.045 453.19 358.488 453.85 357.732 454.393C356.977 454.93 356.022 455.199 354.869 455.199C353.914 455.199 353.066 454.99 352.323 454.572C351.581 454.148 350.997 453.512 350.573 452.663C350.149 451.808 349.937 450.731 349.937 449.432V439.727H352.283V449.273C352.283 450.386 352.595 451.275 353.218 451.938C353.848 452.6 354.65 452.932 355.624 452.932C356.208 452.932 356.801 452.783 357.404 452.484C358.014 452.186 358.524 451.729 358.935 451.112C359.353 450.496 359.562 449.71 359.562 448.756Z" fill="white"/>
<path d="M371.973 455.318C370.701 455.318 369.577 454.997 368.603 454.354C367.628 453.704 366.866 452.789 366.316 451.609C365.766 450.423 365.49 449.021 365.49 447.403C365.49 445.799 365.766 444.407 366.316 443.227C366.866 442.047 367.632 441.136 368.613 440.493C369.594 439.85 370.727 439.528 372.013 439.528C373.007 439.528 373.793 439.694 374.37 440.026C374.953 440.35 375.397 440.722 375.702 441.139C376.014 441.55 376.256 441.888 376.428 442.153H376.627V434.636H378.973V455H376.706V452.653H376.428C376.256 452.932 376.01 453.283 375.692 453.707C375.374 454.125 374.92 454.5 374.33 454.831C373.74 455.156 372.954 455.318 371.973 455.318ZM372.292 453.21C373.233 453.21 374.028 452.965 374.678 452.474C375.328 451.977 375.821 451.291 376.159 450.416C376.498 449.535 376.667 448.517 376.667 447.364C376.667 446.223 376.501 445.226 376.169 444.371C375.838 443.509 375.347 442.839 374.698 442.362C374.048 441.878 373.246 441.636 372.292 441.636C371.297 441.636 370.469 441.892 369.806 442.402C369.15 442.906 368.656 443.592 368.324 444.46C367.999 445.322 367.837 446.29 367.837 447.364C367.837 448.451 368.003 449.438 368.334 450.327C368.672 451.208 369.169 451.911 369.826 452.435C370.489 452.952 371.31 453.21 372.292 453.21Z" fill="white"/>
<path d="M383.597 455V439.727H385.944V455H383.597ZM384.79 437.182C384.333 437.182 383.938 437.026 383.607 436.714C383.282 436.403 383.12 436.028 383.12 435.591C383.12 435.153 383.282 434.779 383.607 434.467C383.938 434.156 384.333 434 384.79 434C385.248 434 385.639 434.156 385.963 434.467C386.295 434.779 386.461 435.153 386.461 435.591C386.461 436.028 386.295 436.403 385.963 436.714C385.639 437.026 385.248 437.182 384.79 437.182Z" fill="white"/>
<path d="M396.446 455.318C395.067 455.318 393.857 454.99 392.817 454.334C391.783 453.678 390.974 452.759 390.391 451.58C389.814 450.4 389.526 449.021 389.526 447.443C389.526 445.852 389.814 444.464 390.391 443.277C390.974 442.09 391.783 441.169 392.817 440.513C393.857 439.857 395.067 439.528 396.446 439.528C397.825 439.528 399.031 439.857 400.065 440.513C401.106 441.169 401.915 442.09 402.491 443.277C403.075 444.464 403.366 445.852 403.366 447.443C403.366 449.021 403.075 450.4 402.491 451.58C401.915 452.759 401.106 453.678 400.065 454.334C399.031 454.99 397.825 455.318 396.446 455.318ZM396.446 453.21C397.493 453.21 398.355 452.942 399.031 452.405C399.707 451.868 400.208 451.162 400.533 450.287C400.857 449.412 401.02 448.464 401.02 447.443C401.02 446.422 400.857 445.471 400.533 444.589C400.208 443.708 399.707 442.995 399.031 442.452C398.355 441.908 397.493 441.636 396.446 441.636C395.399 441.636 394.537 441.908 393.861 442.452C393.185 442.995 392.684 443.708 392.359 444.589C392.035 445.471 391.872 446.422 391.872 447.443C391.872 448.464 392.035 449.412 392.359 450.287C392.684 451.162 393.185 451.868 393.861 452.405C394.537 452.942 395.399 453.21 396.446 453.21Z" fill="white"/>
<path d="M431.528 441H429.062C428.916 440.291 428.661 439.668 428.297 439.131C427.939 438.594 427.501 438.143 426.984 437.778C426.474 437.407 425.907 437.129 425.284 436.943C424.661 436.758 424.011 436.665 423.335 436.665C422.102 436.665 420.985 436.976 419.984 437.599C418.99 438.223 418.198 439.141 417.608 440.354C417.024 441.567 416.733 443.055 416.733 444.818C416.733 446.581 417.024 448.07 417.608 449.283C418.198 450.496 418.99 451.414 419.984 452.037C420.985 452.66 422.102 452.972 423.335 452.972C424.011 452.972 424.661 452.879 425.284 452.693C425.907 452.508 426.474 452.232 426.984 451.868C427.501 451.497 427.939 451.043 428.297 450.506C428.661 449.962 428.916 449.339 429.062 448.636H431.528C431.342 449.677 431.004 450.608 430.514 451.43C430.023 452.252 429.413 452.952 428.684 453.528C427.955 454.098 427.136 454.533 426.228 454.831C425.327 455.129 424.362 455.278 423.335 455.278C421.598 455.278 420.054 454.854 418.701 454.006C417.349 453.157 416.285 451.951 415.51 450.386C414.734 448.822 414.346 446.966 414.346 444.818C414.346 442.67 414.734 440.814 415.51 439.25C416.285 437.686 417.349 436.479 418.701 435.631C420.054 434.782 421.598 434.358 423.335 434.358C424.362 434.358 425.327 434.507 426.228 434.805C427.136 435.104 427.955 435.541 428.684 436.118C429.413 436.688 430.023 437.384 430.514 438.206C431.004 439.021 431.342 439.953 431.528 441Z" fill="white"/>
<path d="M441.399 455.318C440.02 455.318 438.811 454.99 437.77 454.334C436.736 453.678 435.927 452.759 435.344 451.58C434.767 450.4 434.479 449.021 434.479 447.443C434.479 445.852 434.767 444.464 435.344 443.277C435.927 442.09 436.736 441.169 437.77 440.513C438.811 439.857 440.02 439.528 441.399 439.528C442.778 439.528 443.984 439.857 445.018 440.513C446.059 441.169 446.868 442.09 447.445 443.277C448.028 444.464 448.32 445.852 448.32 447.443C448.32 449.021 448.028 450.4 447.445 451.58C446.868 452.759 446.059 453.678 445.018 454.334C443.984 454.99 442.778 455.318 441.399 455.318ZM441.399 453.21C442.446 453.21 443.308 452.942 443.984 452.405C444.661 451.868 445.161 451.162 445.486 450.287C445.811 449.412 445.973 448.464 445.973 447.443C445.973 446.422 445.811 445.471 445.486 444.589C445.161 443.708 444.661 442.995 443.984 442.452C443.308 441.908 442.446 441.636 441.399 441.636C440.352 441.636 439.49 441.908 438.814 442.452C438.138 442.995 437.637 443.708 437.312 444.589C436.988 445.471 436.825 446.422 436.825 447.443C436.825 448.464 436.988 449.412 437.312 450.287C437.637 451.162 438.138 451.868 438.814 452.405C439.49 452.942 440.352 453.21 441.399 453.21Z" fill="white"/>
<path d="M457.669 455.318C456.396 455.318 455.272 454.997 454.298 454.354C453.324 453.704 452.561 452.789 452.011 451.609C451.461 450.423 451.186 449.021 451.186 447.403C451.186 445.799 451.461 444.407 452.011 443.227C452.561 442.047 453.327 441.136 454.308 440.493C455.289 439.85 456.422 439.528 457.708 439.528C458.703 439.528 459.488 439.694 460.065 440.026C460.648 440.35 461.092 440.722 461.397 441.139C461.709 441.55 461.951 441.888 462.123 442.153H462.322V434.636H464.669V455H462.402V452.653H462.123C461.951 452.932 461.706 453.283 461.387 453.707C461.069 454.125 460.615 454.5 460.025 454.831C459.435 455.156 458.65 455.318 457.669 455.318ZM457.987 453.21C458.928 453.21 459.724 452.965 460.373 452.474C461.023 451.977 461.517 451.291 461.855 450.416C462.193 449.535 462.362 448.517 462.362 447.364C462.362 446.223 462.196 445.226 461.865 444.371C461.533 443.509 461.043 442.839 460.393 442.362C459.743 441.878 458.941 441.636 457.987 441.636C456.993 441.636 456.164 441.892 455.501 442.402C454.845 442.906 454.351 443.592 454.02 444.46C453.695 445.322 453.532 446.29 453.532 447.364C453.532 448.451 453.698 449.438 454.029 450.327C454.368 451.208 454.865 451.911 455.521 452.435C456.184 452.952 457.006 453.21 457.987 453.21Z" fill="white"/>
<path d="M475.696 455.318C474.224 455.318 472.955 454.993 471.887 454.344C470.827 453.688 470.008 452.773 469.431 451.599C468.861 450.42 468.576 449.047 468.576 447.483C468.576 445.919 468.861 444.54 469.431 443.347C470.008 442.147 470.81 441.212 471.838 440.543C472.872 439.866 474.078 439.528 475.457 439.528C476.252 439.528 477.038 439.661 477.814 439.926C478.589 440.191 479.295 440.622 479.931 441.219C480.568 441.809 481.075 442.591 481.453 443.565C481.831 444.54 482.02 445.74 482.02 447.165V448.159H470.247V446.131H479.633C479.633 445.269 479.461 444.5 479.116 443.824C478.778 443.148 478.294 442.614 477.664 442.223C477.041 441.832 476.306 441.636 475.457 441.636C474.522 441.636 473.714 441.868 473.031 442.332C472.355 442.79 471.834 443.386 471.47 444.122C471.105 444.858 470.923 445.647 470.923 446.489V447.841C470.923 448.994 471.122 449.972 471.52 450.774C471.924 451.57 472.484 452.176 473.2 452.594C473.916 453.005 474.748 453.21 475.696 453.21C476.312 453.21 476.869 453.124 477.366 452.952C477.87 452.773 478.304 452.508 478.669 452.156C479.033 451.798 479.315 451.354 479.514 450.824L481.781 451.46C481.542 452.229 481.141 452.905 480.578 453.489C480.014 454.065 479.318 454.516 478.49 454.841C477.661 455.159 476.73 455.318 475.696 455.318Z" fill="white"/>
<path d="M249.386 511C249.168 510.33 248.879 509.731 248.521 509.2C248.17 508.663 247.749 508.206 247.259 507.828C246.775 507.45 246.224 507.162 245.608 506.963C244.991 506.764 244.315 506.665 243.58 506.665C242.373 506.665 241.276 506.976 240.288 507.599C239.301 508.223 238.515 509.141 237.932 510.354C237.348 511.567 237.057 513.055 237.057 514.818C237.057 516.581 237.352 518.07 237.942 519.283C238.532 520.496 239.33 521.414 240.338 522.037C241.346 522.66 242.479 522.972 243.739 522.972C244.905 522.972 245.933 522.723 246.821 522.226C247.716 521.722 248.412 521.013 248.909 520.098C249.413 519.177 249.665 518.093 249.665 516.847L250.42 517.006H244.295V514.818H252.051V517.006C252.051 518.683 251.693 520.141 250.977 521.381C250.268 522.62 249.287 523.581 248.034 524.264C246.788 524.94 245.356 525.278 243.739 525.278C241.936 525.278 240.351 524.854 238.986 524.006C237.627 523.157 236.566 521.951 235.804 520.386C235.048 518.822 234.67 516.966 234.67 514.818C234.67 513.207 234.886 511.759 235.317 510.473C235.754 509.18 236.371 508.08 237.166 507.172C237.962 506.264 238.903 505.568 239.99 505.084C241.077 504.6 242.274 504.358 243.58 504.358C244.653 504.358 245.654 504.52 246.582 504.845C247.517 505.163 248.349 505.617 249.078 506.207C249.814 506.791 250.427 507.49 250.918 508.305C251.408 509.114 251.746 510.012 251.932 511H249.386Z" fill="white"/>
<path d="M256.913 525V509.727H259.26V525H256.913ZM258.107 507.182C257.649 507.182 257.255 507.026 256.923 506.714C256.598 506.403 256.436 506.028 256.436 505.591C256.436 505.153 256.598 504.779 256.923 504.467C257.255 504.156 257.649 504 258.107 504C258.564 504 258.955 504.156 259.28 504.467C259.611 504.779 259.777 505.153 259.777 505.591C259.777 506.028 259.611 506.403 259.28 506.714C258.955 507.026 258.564 507.182 258.107 507.182Z" fill="white"/>
<path d="M270.2 509.727V511.716H262.285V509.727H270.2ZM264.592 506.068H266.939V520.625C266.939 521.288 267.035 521.785 267.227 522.116C267.426 522.441 267.678 522.66 267.983 522.773C268.294 522.879 268.622 522.932 268.967 522.932C269.226 522.932 269.438 522.919 269.603 522.892C269.769 522.859 269.902 522.832 270.001 522.812L270.478 524.92C270.319 524.98 270.097 525.04 269.812 525.099C269.527 525.166 269.166 525.199 268.728 525.199C268.065 525.199 267.416 525.056 266.779 524.771C266.15 524.486 265.626 524.052 265.208 523.469C264.797 522.885 264.592 522.15 264.592 521.261V506.068Z" fill="white"/>
<path d="M276.404 515.812V525H274.058V504.636H276.404V512.114H276.603C276.961 511.325 277.498 510.698 278.214 510.234C278.937 509.764 279.898 509.528 281.098 509.528C282.138 509.528 283.05 509.737 283.832 510.155C284.614 510.566 285.221 511.199 285.652 512.054C286.089 512.902 286.308 513.983 286.308 515.295V525H283.961V515.455C283.961 514.241 283.646 513.304 283.017 512.641C282.394 511.971 281.529 511.636 280.422 511.636C279.653 511.636 278.963 511.799 278.353 512.124C277.75 512.448 277.273 512.922 276.922 513.545C276.577 514.169 276.404 514.924 276.404 515.812Z" fill="white"/>
<path d="M300.226 518.756V509.727H302.572V525H300.226V522.415H300.067C299.709 523.19 299.152 523.85 298.396 524.393C297.641 524.93 296.686 525.199 295.533 525.199C294.578 525.199 293.73 524.99 292.987 524.572C292.245 524.148 291.661 523.512 291.237 522.663C290.813 521.808 290.601 520.731 290.601 519.432V509.727H292.947V519.273C292.947 520.386 293.259 521.275 293.882 521.938C294.512 522.6 295.314 522.932 296.288 522.932C296.872 522.932 297.465 522.783 298.068 522.484C298.678 522.186 299.188 521.729 299.599 521.112C300.017 520.496 300.226 519.71 300.226 518.756Z" fill="white"/>
<path d="M307.189 525V504.636H309.535V512.153H309.734C309.906 511.888 310.145 511.55 310.45 511.139C310.761 510.722 311.206 510.35 311.782 510.026C312.366 509.694 313.154 509.528 314.149 509.528C315.435 509.528 316.568 509.85 317.549 510.493C318.53 511.136 319.296 512.047 319.846 513.227C320.396 514.407 320.672 515.799 320.672 517.403C320.672 519.021 320.396 520.423 319.846 521.609C319.296 522.789 318.534 523.704 317.559 524.354C316.585 524.997 315.461 525.318 314.189 525.318C313.208 525.318 312.422 525.156 311.832 524.831C311.242 524.5 310.788 524.125 310.47 523.707C310.152 523.283 309.906 522.932 309.734 522.653H309.456V525H307.189ZM309.495 517.364C309.495 518.517 309.664 519.535 310.002 520.416C310.341 521.291 310.834 521.977 311.484 522.474C312.134 522.965 312.929 523.21 313.87 523.21C314.851 523.21 315.67 522.952 316.326 522.435C316.989 521.911 317.486 521.208 317.818 520.327C318.156 519.438 318.325 518.451 318.325 517.364C318.325 516.29 318.159 515.322 317.828 514.46C317.503 513.592 317.009 512.906 316.346 512.402C315.69 511.892 314.865 511.636 313.87 511.636C312.916 511.636 312.114 511.878 311.464 512.362C310.815 512.84 310.324 513.509 309.993 514.371C309.661 515.226 309.495 516.223 309.495 517.364Z" fill="white"/>
<path d="M0 0H1440V640H0V0Z" fill="black" fill-opacity="0.2"/>
<path d="M0 1832H1440V2279H0V1832Z" fill="black" fill-opacity="0.2"/>
<path d="M560 300H1176V308H560V300Z" fill="#656B6B"/>
<path d="M560 229H1176V237H560V229Z" fill="#656B6B"/>
<path d="M560 300H1110V308H560V300Z" fill="white"/>
<path d="M560 229H1010V237H560V229Z" fill="white"/>
<path d="M560 512H1176V519H560V512Z" fill="#656B6B"/>
<path d="M560 441H1176V449H560V441Z" fill="#656B6B"/>
<path d="M560 371H1176V378H560V371Z" fill="#656B6B"/>
<path d="M560 371H880V378H560V371Z" fill="white"/>
<path d="M560 441H1064V449H560V441Z" fill="white"/>
<path d="M560 511H1064V519H560V511Z" fill="white"/>
</svg>
